<?xml version="1.0" encoding="UTF-8" standalone="no"?>
<!-- Created with Inkscape (http://www.inkscape.org/) -->

<svg
   width="15.437749mm"
   height="5.6516395mm"
   viewBox="0 0 58.347401 21.360528"
   version="1.1"
   id="svg1"
   xml:space="preserve"
   xmlns:xlink="http://www.w3.org/1999/xlink"
   xmlns="http://www.w3.org/2000/svg"
   xmlns:svg="http://www.w3.org/2000/svg"><defs
     id="defs1"><linearGradient
       id="linearGradient47"><stop
         style="stop-color:#2f3538;stop-opacity:1;"
         offset="0"
         id="stop47" /><stop
         style="stop-color:#3e474a;stop-opacity:1;"
         offset="1"
         id="stop48" /></linearGradient><linearGradient
       xlink:href="#linearGradient47"
       id="linearGradient48"
       x1="279.57059"
       y1="76.186119"
       x2="279.57059"
       y2="57.764999"
       gradientUnits="userSpaceOnUse"
       gradientTransform="translate(-165.84618)" /></defs><g
     id="layer1"
     transform="translate(-73.043109,-112.68316)"><g
       id="bash"
       transform="matrix(1.1595673,0,0,1.1595673,-27.854755,45.700758)"><rect
         style="fill:url(#linearGradient48);fill-opacity:1;stroke-width:4.0252;stroke-linecap:round"
         id="rect37"
         width="50.318253"
         height="18.42112"
         x="87.013374"
         y="57.764999"
         rx="3.253191"
         ry="3.253191" /><path
         d="m 98.07984,67.492192 c 0.01641,0.0059 0.02724,0.100171 0.02734,0.224609 6e-5,0.07217 0.0024,0.08042 0.01953,0.07422 0.09253,-0.03372 0.253155,-0.04738 0.296875,-0.02539 0.02858,0.01438 0.02651,0.03867 -0.01367,0.189453 -0.0431,0.161741 -0.04977,0.168756 -0.148438,0.160156 -0.174272,-0.01522 -0.373615,0.09078 -0.447265,0.236328 -0.0251,0.04967 -0.03124,0.07538 -0.03125,0.134766 0,0.06386 0.0028,0.07614 0.02734,0.103515 0.03657,0.04083 0.105458,0.05976 0.261719,0.06836 0.140598,0.0078 0.211867,0.02342 0.279297,0.06055 0.0658,0.03624 0.109802,0.08902 0.138672,0.167968 0.03473,0.09485 0.03515,0.293008 0,0.417969 -0.0499,0.177391 -0.190529,0.398666 -0.322266,0.507813 l -0.05664,0.04687 0.0059,0.136718 c 0.0072,0.178016 0.0044,0.182657 -0.117187,0.248047 -0.09226,0.04961 -0.119706,0.05907 -0.134766,0.04492 -0.0039,-0.0037 -0.0059,-0.0667 -0.0059,-0.140625 0,-0.07392 -0.0026,-0.137525 -0.0059,-0.140625 -0.0033,-0.0031 -0.03716,0.0026 -0.07422,0.01367 -0.13389,0.03997 -0.311901,0.03492 -0.326171,-0.0098 -0.0095,-0.02964 0.06404,-0.297902 0.08789,-0.320312 0.01984,-0.01866 0.02546,-0.01899 0.08594,-0.0078 0.254729,0.04709 0.549836,-0.157789 0.566406,-0.394531 0.0062,-0.08915 -0.0011,-0.115823 -0.03906,-0.158203 -0.04443,-0.04962 -0.09021,-0.06151 -0.25,-0.07031 -0.160739,-0.0089 -0.238167,-0.02638 -0.304687,-0.06836 -0.103502,-0.06532 -0.138919,-0.151415 -0.136719,-0.333984 0.0012,-0.100332 0.0076,-0.140254 0.03125,-0.214844 0.05348,-0.168446 0.137668,-0.30152 0.269531,-0.427734 l 0.08398,-0.08008 v -0.148437 c 0,-0.08092 0.0039,-0.155726 0.0098,-0.166016 0.01455,-0.02556 0.204697,-0.135406 0.222657,-0.128906 z"
         style="fill:#3e474a;stroke-width:0.468042;stroke-linecap:round"
         id="path50" /><g
         id="g50"
         transform="translate(-0.98131845)"><path
           d="m 96.722418,62.251957 c -0.142392,0 -0.336905,0.04397 -0.457032,0.101563 -0.106932,0.05127 -3.458001,1.925362 -3.509765,1.962891 -0.175097,0.126945 -0.303238,0.308478 -0.378907,0.535156 l -0.03125,0.08984 v 2.046875 2.046875 l 0.03125,0.08984 c 0.03911,0.117162 0.0794,0.202985 0.142578,0.294921 0.05602,0.08152 0.199779,0.220405 0.277344,0.269532 0.07033,0.04455 3.411264,1.908622 3.472657,1.9375 0.16202,0.07622 0.415929,0.115922 0.572265,0.08984 l 0.04297,-0.0078 -0.04492,-0.01953 c -0.09166,-0.03884 -0.178664,-0.151655 -0.216797,-0.283203 -0.01711,-0.05903 -0.01803,-0.209785 -0.02148,-1.9375 -0.0039,-1.956639 -0.0022,-2.024491 0.04297,-2.16211 0.0597,-0.181879 0.188167,-0.339897 0.392578,-0.484375 0.08215,-0.05806 3.362241,-1.966075 3.455081,-2.009766 0.13577,-0.0639 0.27365,-0.08165 0.38086,-0.04687 0.0625,0.02028 0.13408,0.07318 0.18164,0.134766 0.031,0.04014 0.0306,0.04138 0.0234,0.01172 -0.0552,-0.229283 -0.20267,-0.456647 -0.38282,-0.587891 -0.0753,-0.05486 -3.417293,-1.925474 -3.531248,-1.976563 -0.134784,-0.06043 -0.297454,-0.0957 -0.441406,-0.0957 z"
           style="fill:#3e474a;stroke-width:0.468042;stroke-linecap:round"
           id="path49" /><path
           style="fill:#f7f7f7;fill-opacity:1;stroke-width:0.0105294"
           d="m 96.520289,71.933152 c -0.122365,-0.01877 -0.272602,-0.0668 -0.382663,-0.122335 -0.116349,-0.05871 -3.368101,-1.872604 -3.464935,-1.932815 -0.09863,-0.06133 -0.268791,-0.221604 -0.334666,-0.315227 -0.103747,-0.147446 -0.170452,-0.297236 -0.210377,-0.472412 -0.01875,-0.08225 -0.01977,-0.191592 -0.01977,-2.102685 0,-1.911091 9.6e-4,-2.020434 0.01977,-2.102684 0.03992,-0.175176 0.10663,-0.324966 0.210377,-0.472411 0.06595,-0.09373 0.23614,-0.253989 0.334666,-0.315143 0.09428,-0.05852 3.345173,-1.872368 3.464935,-1.933277 0.343602,-0.174746 0.783637,-0.180796 1.135066,-0.01561 0.102778,0.04831 3.440318,1.909519 3.513788,1.95949 0.28043,0.19076 0.463,0.464843 0.53452,0.802464 0.0183,0.0864 0.0195,0.209879 0.0195,2.077166 0,1.867289 -0.001,1.990763 -0.0195,2.077167 -0.0715,0.337621 -0.25373,0.611191 -0.53452,0.80253 -0.0751,0.05116 -3.413035,1.912199 -3.513788,1.959073 -0.09674,0.045 -0.191161,0.07604 -0.297197,0.0977 -0.109765,0.02242 -0.338312,0.02694 -0.455206,0.009 z m 0.322799,-0.217661 0.04289,-0.0072 -0.0457,-0.01937 c -0.09166,-0.03884 -0.178144,-0.152379 -0.216277,-0.283927 -0.01711,-0.05903 -0.01884,-0.209298 -0.02229,-1.937013 -0.0039,-1.956639 -0.0026,-2.023715 0.04259,-2.161334 0.0597,-0.181879 0.188835,-0.341441 0.393246,-0.485919 0.08215,-0.05806 3.362853,-1.965781 3.455693,-2.009472 0.13577,-0.0639 0.27414,-0.08048 0.38135,-0.0457 0.0625,0.02028 0.13276,0.07251 0.18032,0.134095 0.031,0.04014 0.0318,0.04047 0.0246,0.01081 -0.0552,-0.229283 -0.2026,-0.454975 -0.38275,-0.586219 -0.0753,-0.05486 -3.418094,-1.926162 -3.532049,-1.977251 -0.134784,-0.06043 -0.296601,-0.09551 -0.440553,-0.09551 -0.142392,0 -0.338421,0.043 -0.458548,0.100594 -0.106932,0.05127 -3.456841,1.925597 -3.508605,1.963126 -0.175097,0.126945 -0.304581,0.30954 -0.38025,0.536218 l -0.02993,0.08966 v 2.046545 2.046545 l 0.02993,0.08966 c 0.03911,0.117162 0.08109,0.202972 0.144264,0.294908 0.05602,0.08152 0.19901,0.221367 0.276575,0.270494 0.07033,0.04455 3.411963,1.907228 3.473356,1.936106 0.16202,0.07622 0.415793,0.116178 0.572129,0.0901 z m 1.15749,-1.47179 c 0.121601,-0.06539 0.124105,-0.07072 0.116875,-0.248736 l -0.0055,-0.135607 0.05741,-0.04756 c 0.131737,-0.109147 0.271541,-0.32969 0.321441,-0.507081 0.03515,-0.124961 0.03557,-0.32399 8.4e-4,-0.41884 -0.02887,-0.07895 -0.07308,-0.13273 -0.13888,-0.16897 -0.06743,-0.03713 -0.138787,-0.05253 -0.279385,-0.06028 -0.156261,-0.0086 -0.225556,-0.02639 -0.262122,-0.06722 -0.02451,-0.02737 -0.02809,-0.04073 -0.02809,-0.104595 8e-6,-0.05939 0.0059,-0.08479 0.031,-0.134463 0.07365,-0.14555 0.274632,-0.251207 0.448904,-0.235986 0.09867,0.0086 0.105186,0.0016 0.148286,-0.160141 0.04018,-0.150779 0.04195,-0.176051 0.01337,-0.190428 -0.04372,-0.02199 -0.204167,-0.0082 -0.2967,0.02552 -0.01711,0.0062 -0.01902,-0.0011 -0.01908,-0.07327 -9.9e-5,-0.124438 -0.01214,-0.219122 -0.02855,-0.225042 -0.01796,-0.0065 -0.206846,0.104341 -0.221401,0.129898 -0.0059,0.01029 -0.01066,0.08492 -0.01066,0.16584 v 0.147133 l -0.08426,0.08065 c -0.131863,0.126214 -0.216048,0.260053 -0.269526,0.428499 -0.02368,0.07459 -0.02917,0.113214 -0.03036,0.213546 -0.0022,0.182569 0.03319,0.269048 0.136692,0.334371 0.06652,0.04198 0.144186,0.05935 0.304925,0.0682 0.159794,0.0088 0.205456,0.02185 0.249881,0.07147 0.03795,0.04238 0.04409,0.06786 0.03785,0.157009 -0.01657,0.236742 -0.310459,0.442183 -0.565188,0.395088 -0.06048,-0.01118 -0.06721,-0.01056 -0.08705,0.0081 -0.02385,0.02241 -0.09793,0.290525 -0.08847,0.320162 0.01427,0.04469 0.193205,0.05039 0.327095,0.01042 0.03706,-0.01106 0.07005,-0.0176 0.07332,-0.01453 0.0033,0.0031 0.0059,0.06606 0.0059,0.13998 0,0.07392 0.0033,0.137457 0.0072,0.1412 0.01506,0.01415 0.04185,0.0053 0.134106,-0.04431 z"
           id="path46" /></g><text
         xml:space="preserve"
         style="font-style:normal;font-variant:normal;font-weight:normal;font-stretch:normal;font-size:9.90527px;font-family:'DejaVu Sans';-inkscape-font-specification:'DejaVu Sans, Normal';font-variant-ligatures:normal;font-variant-caps:normal;font-variant-numeric:normal;font-variant-east-asian:normal;text-align:start;writing-mode:lr-tb;direction:ltr;text-anchor:start;fill:#f7f7f7;fill-opacity:1;stroke-width:2.31308;stroke-linecap:round"
         x="101.90342"
         y="72.622627"
         id="text47"
         transform="scale(1.0315702,0.96939598)"><tspan
           id="tspan47"
           x="101.90342"
           y="72.622627"
           style="font-style:normal;font-variant:normal;font-weight:normal;font-stretch:normal;font-size:9.90527px;font-family:'DejaVu Sans';-inkscape-font-specification:'DejaVu Sans, Normal';font-variant-ligatures:normal;font-variant-caps:normal;font-variant-numeric:normal;font-variant-east-asian:normal;stroke-width:2.31308">Bash</tspan></text></g></g></svg>
