<?xml version="1.0" encoding="UTF-8" standalone="no"?>
<!-- Created with Inkscape (http://www.inkscape.org/) -->

<svg
   width="9.0451269mm"
   height="5.651638mm"
   viewBox="0 0 34.186308 21.360522"
   version="1.1"
   id="svg1"
   xml:space="preserve"
   xmlns:xlink="http://www.w3.org/1999/xlink"
   xmlns="http://www.w3.org/2000/svg"
   xmlns:svg="http://www.w3.org/2000/svg"><defs
     id="defs1"><linearGradient
       id="linearGradient72"><stop
         style="stop-color:#0767fb;stop-opacity:1;"
         offset="0"
         id="stop71" /><stop
         style="stop-color:#3684fc;stop-opacity:1;"
         offset="1"
         id="stop72" /></linearGradient><linearGradient
       xlink:href="#linearGradient72"
       id="linearGradient54"
       gradientUnits="userSpaceOnUse"
       gradientTransform="translate(-110.70207)"
       x1="279.57059"
       y1="76.186119"
       x2="279.57059"
       y2="57.764999" /></defs><g
     id="layer1"
     transform="translate(24.55039,-112.68316)"><g
       id="c"
       transform="matrix(1.159567,0,0,1.159567,-189.39152,45.700772)"><rect
         style="fill:url(#linearGradient54);fill-opacity:1;stroke-width:4.0252;stroke-linecap:round"
         id="rect51"
         width="29.481962"
         height="18.42112"
         x="142.15749"
         y="57.764999"
         rx="3.253191"
         ry="3.253191" /><path
         d="m 153.22395,67.492192 c 0.0164,0.0059 0.0272,0.100171 0.0273,0.224609 6e-5,0.07217 0.002,0.08042 0.0195,0.07422 0.0925,-0.03372 0.25315,-0.04738 0.29687,-0.02539 0.0286,0.01438 0.0265,0.03867 -0.0137,0.189453 -0.0431,0.161741 -0.0498,0.168756 -0.14843,0.160156 -0.17428,-0.01522 -0.37362,0.09078 -0.44727,0.236328 -0.0251,0.04967 -0.0312,0.07538 -0.0312,0.134766 0,0.06386 0.003,0.07614 0.0273,0.103515 0.0366,0.04083 0.10546,0.05976 0.26172,0.06836 0.1406,0.0078 0.21187,0.02342 0.2793,0.06055 0.0658,0.03624 0.1098,0.08902 0.13867,0.167968 0.0347,0.09485 0.0352,0.293008 0,0.417969 -0.0499,0.177391 -0.19053,0.398666 -0.32227,0.507813 l -0.0566,0.04687 0.006,0.136718 c 0.007,0.178016 0.004,0.182657 -0.11718,0.248047 -0.0923,0.04961 -0.11971,0.05907 -0.13477,0.04492 -0.004,-0.0037 -0.006,-0.0667 -0.006,-0.140625 0,-0.07392 -0.003,-0.137525 -0.006,-0.140625 -0.003,-0.0031 -0.0372,0.0026 -0.0742,0.01367 -0.13389,0.03997 -0.3119,0.03492 -0.32617,-0.0098 -0.01,-0.02964 0.064,-0.297902 0.0879,-0.320312 0.0198,-0.01866 0.0255,-0.01899 0.0859,-0.0078 0.25473,0.04709 0.54983,-0.157789 0.5664,-0.394531 0.006,-0.08915 -0.001,-0.115823 -0.0391,-0.158203 -0.0444,-0.04962 -0.0902,-0.06151 -0.25,-0.07031 -0.16073,-0.0089 -0.23816,-0.02638 -0.30468,-0.06836 -0.1035,-0.06532 -0.13892,-0.151415 -0.13672,-0.333984 0.001,-0.100332 0.008,-0.140254 0.0312,-0.214844 0.0535,-0.168446 0.13767,-0.30152 0.26953,-0.427734 l 0.084,-0.08008 v -0.148437 c 0,-0.08092 0.004,-0.155726 0.01,-0.166016 0.0145,-0.02556 0.2047,-0.135406 0.22266,-0.128906 z"
         style="fill:#3e474a;stroke-width:0.468042;stroke-linecap:round"
         id="path51" /><g
         id="g71"
         transform="translate(24.543613,-20.329676)"><path
           d="m 126.46461,84.015631 c -0.36543,0.0015 -0.73407,0.05986 -1.09571,0.173828 -1.18709,0.374098 -2.06249,1.32548 -2.3125,2.515625 -0.0694,0.330553 -0.0679,0.894691 0.002,1.224609 0.16026,0.756296 0.57454,1.426972 1.17383,1.902344 0.55959,0.443884 1.16024,0.682513 1.9414,0.771485 0.1777,0.02024 0.7152,-0.0072 0.94141,-0.04883 0.93437,-0.171578 1.75701,-0.695918 2.27344,-1.451172 0.0531,-0.07769 0.0884,-0.149182 0.0781,-0.158204 -0.0103,-0.009 -0.35006,-0.190048 -0.75586,-0.402343 -0.61723,-0.322908 -0.74181,-0.380632 -0.75781,-0.353516 -0.0105,0.01783 -0.0673,0.08962 -0.12695,0.160156 -0.21459,0.25371 -0.50443,0.44211 -0.83594,0.544922 -0.25055,0.0777 -0.64329,0.09286 -0.90625,0.0332 -0.67895,-0.154038 -1.17842,-0.644847 -1.31641,-1.291015 -0.0479,-0.224298 -0.0318,-0.584952 0.0352,-0.78711 0.15105,-0.455796 0.46734,-0.81092 0.90234,-1.011719 0.28669,-0.13234 0.42769,-0.162982 0.76172,-0.164062 0.32849,-0.0011 0.46898,0.02805 0.74805,0.154297 0.30874,0.139668 0.49477,0.295219 0.73437,0.615234 0.003,0.0041 0.34291,-0.176191 0.75586,-0.400391 l 0.75195,-0.40625 -0.0312,-0.05664 c -0.10782,-0.197829 -0.46055,-0.582774 -0.72656,-0.792969 -0.64463,-0.50938 -1.43042,-0.774703 -2.23437,-0.771484 z"
           style="fill:#3684fc;stroke-width:0.465026;stroke-linecap:round"
           id="path71" /><path
           style="fill:#f7f7f7;fill-opacity:1;stroke-width:0.0380392"
           d="m 126.24953,92.229291 c -0.13935,-0.06079 -4.23535,-2.251452 -4.31089,-2.305587 -0.0377,-0.02698 -0.0939,-0.09759 -0.1251,-0.156911 l -0.0566,-0.107849 v -2.349559 -2.34956 l 0.0465,-0.0939 c 0.0256,-0.05164 0.0819,-0.122044 0.1251,-0.156443 0.0652,-0.05188 1.73627,-0.949535 3.90676,-2.098593 l 0.456,-0.241405 h 0.17493 0.17493 l 2.15384,1.141402 c 2.3477,1.244127 2.3032,1.21721 2.37109,1.434149 0.0494,0.157909 0.0497,4.578432 3.1e-4,4.736276 -0.0648,0.20709 -0.0307,0.186324 -2.25173,1.371158 -1.13077,0.603225 -2.11469,1.123523 -2.18648,1.156217 -0.15827,0.07207 -0.34249,0.08 -0.47864,0.02061 z m 0.86588,-1.674586 c 0.93437,-0.171578 1.75658,-0.696842 2.27301,-1.452096 0.0531,-0.07769 0.0882,-0.148628 0.0779,-0.15765 -0.0103,-0.009 -0.35068,-0.190101 -0.75648,-0.402396 -0.61723,-0.322908 -0.74093,-0.380693 -0.75693,-0.353577 -0.0105,0.01783 -0.0679,0.09012 -0.12758,0.160654 -0.21459,0.25371 -0.5046,0.443046 -0.83611,0.545858 -0.25055,0.0777 -0.64202,0.09146 -0.90498,0.0318 -0.67895,-0.154038 -1.17885,-0.643707 -1.31684,-1.289875 -0.0479,-0.224298 -0.0317,-0.586086 0.0353,-0.788244 0.15105,-0.455796 0.46791,-0.810786 0.90291,-1.011585 0.28669,-0.13234 0.42743,-0.162591 0.76146,-0.163671 0.32849,-0.0011 0.46872,0.02783 0.74779,0.154077 0.30874,0.139668 0.49492,0.295756 0.73452,0.615771 0.003,0.0041 0.34346,-0.175969 0.75641,-0.400169 l 0.75082,-0.407637 -0.0303,-0.05561 c -0.10782,-0.197829 -0.46116,-0.583506 -0.72717,-0.793701 -0.93765,-0.740916 -2.17305,-0.962787 -3.33029,-0.598099 -1.18709,0.374098 -2.06154,1.325916 -2.31155,2.516061 -0.0694,0.330553 -0.069,0.894879 8.6e-4,1.224797 0.16026,0.756296 0.5745,1.428023 1.17379,1.903395 0.55959,0.443884 1.16025,0.6826 1.94141,0.771572 0.1777,0.02024 0.71581,-0.0081 0.94202,-0.04968 z"
           id="path54" /></g><text
         xml:space="preserve"
         style="font-style:normal;font-variant:normal;font-weight:normal;font-stretch:normal;font-size:9.90527px;font-family:'DejaVu Sans';-inkscape-font-specification:'DejaVu Sans, Normal';font-variant-ligatures:normal;font-variant-caps:normal;font-variant-numeric:normal;font-variant-east-asian:normal;text-align:start;writing-mode:lr-tb;direction:ltr;text-anchor:start;fill:#f7f7f7;fill-opacity:1;stroke-width:2.31308;stroke-linecap:round"
         x="155.35989"
         y="72.622627"
         id="text53"
         transform="scale(1.0315702,0.96939598)"><tspan
           id="tspan53"
           x="155.35989"
           y="72.622627"
           style="font-style:normal;font-variant:normal;font-weight:normal;font-stretch:normal;font-size:9.90527px;font-family:'DejaVu Sans';-inkscape-font-specification:'DejaVu Sans, Normal';font-variant-ligatures:normal;font-variant-caps:normal;font-variant-numeric:normal;font-variant-east-asian:normal;stroke-width:2.31308">C</tspan></text></g></g></svg>
