<?xml version="1.0" encoding="UTF-8" standalone="no"?>
<!-- Created with Inkscape (http://www.inkscape.org/) -->

<svg
   width="14.187066mm"
   height="5.651639mm"
   viewBox="0 0 53.62041 21.360526"
   version="1.1"
   id="svg1"
   xml:space="preserve"
   xmlns:xlink="http://www.w3.org/1999/xlink"
   xmlns="http://www.w3.org/2000/svg"
   xmlns:svg="http://www.w3.org/2000/svg"><defs
     id="defs1"><linearGradient
       id="linearGradient131"><stop
         style="stop-color:#1b2461;stop-opacity:1;"
         offset="0"
         id="stop130" /><stop
         style="stop-color:#293693;stop-opacity:1;"
         offset="1"
         id="stop131" /></linearGradient><linearGradient
       xlink:href="#linearGradient131"
       id="linearGradient74"
       gradientUnits="userSpaceOnUse"
       gradientTransform="translate(-171.27251,32.04941)"
       x1="279.57059"
       y1="76.186119"
       x2="279.57059"
       y2="57.764999" /></defs><g
     id="layer1"
     transform="translate(-15.467512,-112.68316)"><g
       id="cpp"
       transform="matrix(1.1595672,0,0,1.1595672,-79.138148,8.5373205)"><rect
         style="fill:url(#linearGradient74);fill-opacity:1;stroke-width:4.0252;stroke-linecap:round"
         id="rect72"
         width="46.241745"
         height="18.42112"
         x="81.587044"
         y="89.814407"
         rx="3.253191"
         ry="3.253191" /><path
         d="m 92.653505,99.541602 c 0.0164,0.0059 0.0272,0.100171 0.0273,0.224609 6e-5,0.07217 0.002,0.08042 0.0195,0.07422 0.0925,-0.03372 0.25315,-0.04738 0.29687,-0.02539 0.0286,0.01438 0.0265,0.03867 -0.0137,0.189449 -0.0431,0.16175 -0.0498,0.16876 -0.14843,0.16016 -0.17428,-0.0152 -0.37362,0.0908 -0.44727,0.23633 -0.0251,0.0497 -0.0312,0.0754 -0.0312,0.13476 0,0.0639 0.003,0.0761 0.0273,0.10352 0.0366,0.0408 0.10546,0.0598 0.26172,0.0684 0.1406,0.008 0.21187,0.0234 0.2793,0.0605 0.0658,0.0362 0.1098,0.089 0.13867,0.16797 0.0347,0.0949 0.0352,0.29301 0,0.41797 -0.0499,0.17739 -0.19053,0.39866 -0.32227,0.50781 l -0.0566,0.0469 0.006,0.13672 c 0.007,0.17801 0.004,0.18265 -0.11718,0.24804 -0.0923,0.0496 -0.11971,0.0591 -0.13477,0.0449 -0.004,-0.004 -0.006,-0.0667 -0.006,-0.14062 0,-0.0739 -0.003,-0.13753 -0.006,-0.14063 -0.003,-0.003 -0.0372,0.003 -0.0742,0.0137 -0.13389,0.04 -0.3119,0.0349 -0.32617,-0.01 -0.01,-0.0296 0.064,-0.2979 0.0879,-0.32031 0.0198,-0.0187 0.0255,-0.019 0.0859,-0.008 0.25473,0.0471 0.54983,-0.15779 0.5664,-0.39453 0.006,-0.0891 -0.001,-0.11582 -0.0391,-0.1582 -0.0444,-0.0496 -0.0902,-0.0615 -0.25,-0.0703 -0.16073,-0.009 -0.23816,-0.0264 -0.30468,-0.0684 -0.1035,-0.0653 -0.13892,-0.15142 -0.13672,-0.33399 0.001,-0.10033 0.008,-0.14025 0.0312,-0.21484 0.0535,-0.16845 0.13767,-0.30152 0.26953,-0.42773 l 0.084,-0.08008 v -0.148437 c 0,-0.08092 0.004,-0.155726 0.01,-0.166016 0.0145,-0.02556 0.2047,-0.135406 0.22266,-0.128906 z"
         style="fill:#3e474a;stroke-width:0.468042;stroke-linecap:round"
         id="path72" /><g
         id="g130"
         transform="translate(22.281314,4.126147)"><path
           d="m 71.929447,94.523444 c 0.18153,-0.0098 0.197113,0.004 0.195313,0.193359 l -0.002,0.138672 0.175781,0.0078 0.175781,0.0098 v 0.158203 0.160157 l -0.177734,0.0078 -0.175781,0.0078 0.0039,0.15625 c 0.0029,0.08498 -0.0024,0.157809 -0.01367,0.162109 -0.01128,0.0043 -0.09536,0.0045 -0.185547,0 l -0.164062,-0.0098 v -0.160156 -0.162109 h -0.169922 -0.171875 v -0.160157 -0.160156 l 0.175781,-0.0098 0.175781,-0.0078 0.002,-0.162109 0.002,-0.16211 z"
           style="fill:#293693;stroke-width:0.465026;stroke-linecap:round"
           id="path130" /><path
           d="m 70.478275,94.517584 h 0.171875 0.169922 v 0.175782 0.175781 h 0.185547 0.185547 v 0.162109 0.160157 l -0.177734,0.0078 -0.177735,0.0078 -0.01563,0.164062 -0.01367,0.162109 -0.164062,0.002 -0.164063,0.0039 v -0.171875 -0.173828 h -0.169921 -0.171876 v -0.16211 -0.162109 h 0.171876 0.169921 v -0.175781 z"
           style="fill:#293693;stroke-width:0.465026;stroke-linecap:round"
           id="path129" /><path
           d="m 68.083744,92.125006 c -0.526382,-3.6e-4 -0.614063,0.01187 -1.068359,0.16211 -0.912645,0.301826 -1.654785,1.081139 -1.919922,2.011718 -0.06595,0.231443 -0.07537,0.309707 -0.07617,0.71875 -8.31e-4,0.387307 0.0093,0.498572 0.0625,0.699219 0.220753,0.831869 0.834544,1.556532 1.632812,1.929688 0.247912,0.115888 0.592661,0.225308 0.855469,0.269531 0.273011,0.04594 0.88176,0.0302 1.167969,-0.0293 0.516096,-0.107293 1.061602,-0.381961 1.453125,-0.732422 0.233212,-0.208752 0.551837,-0.593677 0.539063,-0.652343 -0.0074,-0.03394 -1.250276,-0.740235 -1.302735,-0.740235 -0.01076,0 -0.04071,0.03524 -0.06641,0.07617 -0.150579,0.239855 -0.421233,0.442092 -0.75586,0.566406 -0.169407,0.06293 -0.234143,0.07227 -0.521484,0.07227 -0.285514,0 -0.353139,-0.0092 -0.517578,-0.07031 -0.466597,-0.173499 -0.755453,-0.455137 -0.925781,-0.90039 -0.200223,-0.523406 -0.05103,-1.112343 0.382812,-1.509766 0.495566,-0.45397 1.189651,-0.545626 1.794922,-0.236328 0.191276,0.09774 0.296687,0.18595 0.470703,0.388672 l 0.128906,0.148437 0.394532,-0.216797 c 0.217375,-0.119115 0.507033,-0.278743 0.644531,-0.353515 0.1375,-0.07477 0.258442,-0.14613 0.267578,-0.160157 0.04911,-0.0754 -0.46627,-0.640196 -0.8125,-0.890625 -0.250059,-0.180867 -0.704374,-0.388131 -1.044922,-0.476562 -0.259869,-0.06748 -0.328433,-0.07393 -0.783203,-0.07422 z"
           style="fill:#293693;stroke-width:0.465026;stroke-linecap:round"
           id="path128" /><path
           style="fill:#f7f7f7;fill-opacity:1;stroke-width:0.0517357"
           d="m 67.769287,99.933848 c -0.07058,-0.02622 -0.263079,-0.121449 -0.427773,-0.211619 -0.164691,-0.09017 -0.459854,-0.252031 -0.655918,-0.359691 -0.196061,-0.107662 -0.760721,-0.415643 -1.254796,-0.684402 -1.813155,-0.98629 -1.79273,-0.97314 -1.922356,-1.237737 -0.05904,-0.120525 -0.05965,-0.145157 -0.05965,-2.408351 0,-2.282418 1.06e-4,-2.286811 0.06129,-2.412389 0.09825,-0.201671 0.248539,-0.31507 0.852711,-0.6434 0.798144,-0.433742 1.726473,-0.940882 2.593727,-1.416936 0.407813,-0.223854 0.798054,-0.423269 0.867208,-0.443144 0.225428,-0.06479 0.489548,-0.03689 0.703281,0.07428 0.08285,0.0431 1.309599,0.711357 1.894467,1.031996 0.149007,0.08169 0.623835,0.340845 1.055172,0.575902 0.431337,0.235057 0.838896,0.464258 0.90569,0.509336 0.144665,0.09763 0.276181,0.283257 0.319748,0.451299 0.02214,0.08538 0.02911,0.784944 0.02334,2.340702 l -0.0082,2.21893 -0.08016,0.154899 c -0.09338,0.18045 -0.21779,0.289064 -0.508527,0.443984 -0.115401,0.06149 -0.626895,0.339736 -1.136657,0.618323 -0.509762,0.278587 -1.282035,0.700368 -1.716161,0.937291 -0.434129,0.236925 -0.843194,0.448806 -0.909035,0.470849 -0.159591,0.05343 -0.439022,0.04869 -0.597352,-0.01013 z m 0.969615,-2.046916 c 0.516096,-0.107293 1.060627,-0.381922 1.45215,-0.732383 0.233212,-0.208752 0.551162,-0.594468 0.538388,-0.653134 -0.0074,-0.03394 -1.250322,-0.738744 -1.302781,-0.738744 -0.01076,0 -0.04056,0.03349 -0.06626,0.07442 -0.150579,0.239855 -0.421477,0.443178 -0.756104,0.567492 -0.169407,0.06293 -0.233972,0.07183 -0.521313,0.07183 -0.285514,0 -0.352406,-0.0091 -0.516845,-0.07024 -0.466597,-0.173499 -0.755688,-0.454344 -0.926016,-0.899597 -0.200223,-0.523406 -0.05067,-1.112879 0.383168,-1.510302 0.495566,-0.45397 1.190093,-0.545246 1.795364,-0.235948 0.191276,0.09774 0.296823,0.18456 0.470839,0.387282 l 0.127638,0.148693 0.395227,-0.216571 c 0.217375,-0.119115 0.507727,-0.277749 0.645225,-0.352521 0.1375,-0.07477 0.257475,-0.147426 0.266611,-0.161453 0.04911,-0.0754 -0.465679,-0.639914 -0.811909,-0.890343 -0.250059,-0.180867 -0.704505,-0.388081 -1.045053,-0.476512 -0.259869,-0.06748 -0.329479,-0.07408 -0.784249,-0.07437 -0.526382,-3.6e-4 -0.612398,0.01282 -1.066694,0.163061 -0.912645,0.301826 -1.65636,1.080032 -1.921497,2.010611 -0.06595,0.231443 -0.07426,0.311267 -0.07506,0.72031 -8.31e-4,0.387307 0.0091,0.497693 0.06234,0.69834 0.220753,0.831869 0.834094,1.55716 1.632362,1.930316 0.247912,0.115888 0.592412,0.22389 0.85522,0.268113 0.273011,0.04594 0.883034,0.03115 1.169243,-0.02835 z m 2.081826,-2.516633 0.01426,-0.162361 0.178236,-0.0081 0.178238,-0.0081 v -0.16107 -0.16107 h -0.185367 -0.185366 v -0.17589 -0.17589 h -0.171111 -0.171106 v 0.17589 0.175891 H 70.3074 70.136294 v 0.162361 0.162361 h 0.171106 0.171112 v 0.172653 0.172654 l 0.163977,-0.0035 0.16398,-0.0035 z m 1.304793,-0.0078 -0.0053,-0.154519 0.177261,-0.0081 0.177262,-0.0081 v -0.159776 -0.159779 l -0.175662,-0.0081 -0.175664,-0.0081 0.0014,-0.138635 c 0.0018,-0.18936 -0.01303,-0.204215 -0.19456,-0.194412 l -0.154149,0.0083 -0.0028,0.162361 -0.0028,0.162361 -0.175391,0.0081 -0.175393,0.0081 v 0.16107 0.161069 h 0.171108 0.171109 v 0.16101 0.161011 l 0.163978,0.0081 c 0.09019,0.0045 0.173206,0.0046 0.184482,2.58e-4 0.01128,-0.0043 0.01813,-0.07738 0.01524,-0.162361 z"
           id="path55" /></g><text
         xml:space="preserve"
         style="font-style:normal;font-variant:normal;font-weight:normal;font-stretch:normal;font-size:9.90527px;font-family:'DejaVu Sans';-inkscape-font-specification:'DejaVu Sans, Normal';font-variant-ligatures:normal;font-variant-caps:normal;font-variant-numeric:normal;font-variant-east-asian:normal;text-align:start;writing-mode:lr-tb;direction:ltr;text-anchor:start;fill:#f7f7f7;fill-opacity:1;stroke-width:2.31308;stroke-linecap:round"
         x="96.64315"
         y="105.68385"
         id="text74"
         transform="scale(1.0315702,0.96939598)"><tspan
           id="tspan74"
           x="96.64315"
           y="105.68385"
           style="font-style:normal;font-variant:normal;font-weight:normal;font-stretch:normal;font-size:9.90527px;font-family:'DejaVu Sans';-inkscape-font-specification:'DejaVu Sans, Normal';font-variant-ligatures:normal;font-variant-caps:normal;font-variant-numeric:normal;font-variant-east-asian:normal;stroke-width:2.31308">C++</tspan></text></g></g></svg>
