<?xml version="1.0" encoding="UTF-8" standalone="no"?>
<!-- Created with Inkscape (http://www.inkscape.org/) -->

<svg
   width="16.952269mm"
   height="5.5899444mm"
   viewBox="0 0 64.07157 21.127349"
   version="1.1"
   id="svg1"
   xml:space="preserve"
   xmlns:xlink="http://www.w3.org/1999/xlink"
   xmlns="http://www.w3.org/2000/svg"
   xmlns:svg="http://www.w3.org/2000/svg"><defs
     id="defs1"><linearGradient
       id="linearGradient149"><stop
         style="stop-color:#31709a;stop-opacity:1;"
         offset="0"
         id="stop149" /><stop
         style="stop-color:#4c95c6;stop-opacity:1;"
         offset="1"
         id="stop150" /></linearGradient><linearGradient
       xlink:href="#linearGradient149"
       id="linearGradient150"
       x1="478.39655"
       y1="133.81052"
       x2="478.39655"
       y2="112.68317"
       gradientUnits="userSpaceOnUse" /></defs><g
     id="layer1"
     transform="translate(-446.36075,-112.68317)"><g
       id="fedora"><title
         id="title147">fedora</title><rect
         style="fill:url(#linearGradient150);fill-opacity:1;stroke-width:4.61654;stroke-linecap:round"
         id="rect146"
         width="64.071571"
         height="21.12735"
         x="446.36075"
         y="112.68317"
         rx="3.731113"
         ry="3.731113" /><path
         style="fill:#ffffff;fill-opacity:1;stroke-width:0.307923"
         d="m 452.01784,129.16928 c -0.35796,-0.0777 -0.72663,-0.36491 -0.89112,-0.69434 -0.15805,-0.31651 -0.14986,-0.13556 -0.1423,-3.14558 0.007,-2.93773 3.1e-4,-2.75795 0.12981,-3.34112 0.48933,-2.20479 2.18456,-3.94532 4.36661,-4.48325 0.76473,-0.18853 1.62149,-0.22375 2.38763,-0.0982 1.01,0.16559 1.97669,0.59894 2.78399,1.24801 1.03203,0.82978 1.80447,2.09218 2.06959,3.38234 0.0982,0.47777 0.11419,0.64821 0.11458,1.21933 3.1e-4,0.57647 -0.0134,0.73208 -0.10465,1.18796 -0.35864,1.79007 -1.53002,3.31444 -3.17679,4.13411 -0.6598,0.32841 -1.29706,0.5142 -2.03219,0.59246 -0.39733,0.0423 -5.30927,0.0407 -5.50516,-0.002 z m 3.39408,-1.68514 c 0.79085,-0.13849 1.45593,-0.71438 1.71276,-1.48304 0.0971,-0.29071 0.11364,-0.46677 0.11373,-1.21351 l 8e-5,-0.68402 0.4928,-0.008 c 0.53654,-0.008 0.59121,-0.0186 0.71313,-0.13432 0.23686,-0.2248 0.18658,-0.65159 -0.0945,-0.80183 -0.0808,-0.0432 -0.11216,-0.0459 -0.59916,-0.0519 l -0.51397,-0.006 0.006,-0.84765 0.006,-0.84766 0.0655,-0.13314 c 0.0852,-0.17295 0.26245,-0.34348 0.4468,-0.42979 0.34402,-0.16109 0.86736,-0.0611 1.11357,0.21275 0.14655,0.16301 0.18034,0.2783 0.18332,0.62549 0.002,0.2561 0.008,0.30531 0.0449,0.37596 0.13153,0.25228 0.41407,0.34757 0.66564,0.22449 0.21506,-0.10522 0.27679,-0.25262 0.277,-0.66141 1.2e-4,-0.21269 -0.009,-0.31089 -0.0422,-0.43693 -0.17117,-0.65776 -0.69269,-1.15878 -1.40082,-1.34574 -0.27144,-0.0717 -0.66116,-0.0758 -0.92457,-0.01 -0.35634,0.0893 -0.66012,0.2664 -0.91831,0.53533 -0.23582,0.24564 -0.37067,0.48009 -0.4601,0.79987 -0.0454,0.16237 -0.0455,0.16522 -0.0564,2.30654 l -0.011,2.14397 -0.0456,0.12031 c -0.11479,0.30308 -0.31531,0.53194 -0.58536,0.6681 -0.26522,0.13372 -0.64508,0.16136 -0.93336,0.0679 -0.52335,-0.16964 -0.87497,-0.6814 -0.83587,-1.21653 0.0137,-0.18808 0.0902,-0.42696 0.18268,-0.57111 0.10073,-0.15696 0.30755,-0.33925 0.48162,-0.42451 0.26034,-0.12751 0.34321,-0.14227 0.85743,-0.15267 l 0.46234,-0.009 v -0.499 -0.499 l -0.50297,0.0127 c -0.52917,0.0134 -0.67501,0.0325 -0.94718,0.12383 -0.78261,0.26271 -1.36529,0.95707 -1.49721,1.78416 -0.0353,0.22121 -0.0147,0.65061 0.0411,0.85931 0.0551,0.20578 0.21189,0.537 0.33768,0.71328 0.48712,0.68264 1.34473,1.03639 2.16452,0.89281 z"
         id="path146" /><text
         xml:space="preserve"
         style="font-style:normal;font-variant:normal;font-weight:normal;font-stretch:normal;font-size:11.3604px;font-family:'DejaVu Sans';-inkscape-font-specification:'DejaVu Sans, Normal';font-variant-ligatures:normal;font-variant-caps:normal;font-variant-numeric:normal;font-variant-east-asian:normal;text-align:start;writing-mode:lr-tb;direction:ltr;text-anchor:start;fill:#ffffff;fill-opacity:1;stroke-width:2.65289;stroke-linecap:round"
         x="452.832"
         y="131.18938"
         id="text146"
         transform="scale(1.0315702,0.96939598)"><tspan
           id="tspan146"
           x="452.832"
           y="131.18938"
           style="font-style:normal;font-variant:normal;font-weight:normal;font-stretch:normal;font-size:11.3604px;font-family:'DejaVu Sans';-inkscape-font-specification:'DejaVu Sans, Normal';font-variant-ligatures:normal;font-variant-caps:normal;font-variant-numeric:normal;font-variant-east-asian:normal;fill:#ffffff;fill-opacity:1;stroke-width:2.65289">Fedora</tspan></text></g></g></svg>
