<?xml version="1.0" encoding="UTF-8" standalone="no"?>
<!-- Created with Inkscape (http://www.inkscape.org/) -->

<svg
   width="11.686544mm"
   height="5.5899444mm"
   viewBox="0 0 44.169619 21.127349"
   version="1.1"
   id="svg1"
   xml:space="preserve"
   xmlns="http://www.w3.org/2000/svg"
   xmlns:svg="http://www.w3.org/2000/svg"><defs
     id="defs1" /><g
     id="layer1"
     transform="translate(-601.6311,-112.68317)"><g
       id="g165"><rect
         style="fill:#f15c51;fill-opacity:1;stroke-width:4.61654;stroke-linecap:round"
         id="rect164"
         width="44.169621"
         height="21.12735"
         x="601.6311"
         y="112.68317"
         rx="3.731113"
         ry="3.731113" /><path
         style="fill:#eeeeee;fill-opacity:1;stroke-width:0.205179"
         d="m 612.32383,129.29913 c -0.11961,-0.0459 -0.32729,-0.2478 -2.8633,-2.78429 -2.20882,-2.20922 -2.74508,-2.75738 -2.79019,-2.85208 -0.0453,-0.095 -0.0558,-0.15503 -0.0558,-0.31654 0,-0.34793 -0.11109,-0.21872 2.01571,-2.34463 l 1.88821,-1.88743 0.61338,0.61339 0.6134,0.61338 -0.0522,0.12144 c -0.21026,0.48875 0.0125,1.06172 0.49687,1.27825 l 0.1562,0.0698 v 1.53577 1.53578 l -0.1562,0.0698 c -0.20557,0.0919 -0.38398,0.2663 -0.47807,0.46736 -0.23918,0.51112 -0.0273,1.08939 0.48879,1.33384 0.14714,0.0697 0.17615,0.0751 0.40588,0.0751 0.23874,0 0.25365,-0.003 0.42575,-0.0881 0.40091,-0.19815 0.61077,-0.59243 0.55202,-1.03714 -0.0427,-0.32306 -0.26764,-0.622 -0.56583,-0.7519 l -0.15524,-0.0676 v -1.53763 -1.53763 l 0.12273,-0.0519 0.12273,-0.0519 0.57123,0.57123 0.57123,0.57123 -0.048,0.0941 c -0.0264,0.0517 -0.0609,0.16411 -0.0767,0.24972 -0.0766,0.41561 0.15846,0.86505 0.54763,1.04716 0.50534,0.23648 1.07763,0.0358 1.32492,-0.46454 0.0851,-0.17226 0.0881,-0.18681 0.0881,-0.42697 0,-0.24015 -0.003,-0.2547 -0.0881,-0.42696 -0.15101,-0.30556 -0.44012,-0.51856 -0.75211,-0.55412 -0.18372,-0.0209 -0.38367,0.005 -0.53454,0.0702 l -0.11816,0.0508 -0.56446,-0.56445 -0.56445,-0.56446 0.0565,-0.12513 c 0.0492,-0.10893 0.0565,-0.16007 0.0565,-0.39477 0,-0.24834 -0.005,-0.28029 -0.0662,-0.40441 -0.10201,-0.20781 -0.27149,-0.37749 -0.47992,-0.48051 -0.1721,-0.0851 -0.18701,-0.0881 -0.42575,-0.0881 -0.21834,0 -0.26291,0.007 -0.37922,0.0618 l -0.1318,0.0618 -0.61301,-0.61335 -0.61303,-0.61335 0.66276,-0.65855 c 0.74677,-0.74204 0.75416,-0.74718 1.07308,-0.74718 0.34832,0 0.0973,-0.22495 3.13683,2.81059 2.286,2.28297 2.7368,2.74373 2.79019,2.85186 0.0542,0.10969 0.0637,0.15872 0.0637,0.32825 0,0.1617 -0.0106,0.22142 -0.056,0.31653 -0.0451,0.0944 -0.58281,0.64485 -2.76674,2.83202 -2.27411,2.27747 -2.73155,2.72504 -2.83973,2.77841 -0.17516,0.0864 -0.42422,0.097 -0.60962,0.0259 z"
         id="path164" /><text
         xml:space="preserve"
         style="font-style:normal;font-variant:normal;font-weight:normal;font-stretch:normal;font-size:11.3604px;font-family:'DejaVu Sans';-inkscape-font-specification:'DejaVu Sans, Normal';font-variant-ligatures:normal;font-variant-caps:normal;font-variant-numeric:normal;font-variant-east-asian:normal;text-align:start;writing-mode:lr-tb;direction:ltr;text-anchor:start;fill:#eeeeee;fill-opacity:1;stroke-width:2.65289;stroke-linecap:round"
         x="603.35046"
         y="131.18938"
         id="text165"
         transform="scale(1.0315702,0.96939598)"><tspan
           id="tspan165"
           x="603.35046"
           y="131.18938"
           style="font-style:normal;font-variant:normal;font-weight:normal;font-stretch:normal;font-size:11.3604px;font-family:'DejaVu Sans';-inkscape-font-specification:'DejaVu Sans, Normal';font-variant-ligatures:normal;font-variant-caps:normal;font-variant-numeric:normal;font-variant-east-asian:normal;fill:#eeeeee;fill-opacity:1;stroke-width:2.65289">Git</tspan></text></g></g></svg>
