<?xml version="1.0" encoding="UTF-8" standalone="no"?>
<!-- Created with Inkscape (http://www.inkscape.org/) -->

<svg
   width="20.366755mm"
   height="5.5899444mm"
   viewBox="0 0 76.976714 21.127349"
   version="1.1"
   id="svg1"
   xml:space="preserve"
   xmlns:xlink="http://www.w3.org/1999/xlink"
   xmlns="http://www.w3.org/2000/svg"
   xmlns:svg="http://www.w3.org/2000/svg"><defs
     id="defs1"><linearGradient
       id="linearGradient163"><stop
         style="stop-color:#e1e1e1;stop-opacity:1;"
         offset="0"
         id="stop163" /><stop
         style="stop-color:#efefef;stop-opacity:1;"
         offset="1"
         id="stop164" /></linearGradient><linearGradient
       xlink:href="#linearGradient163"
       id="linearGradient164"
       x1="554.33807"
       y1="133.81052"
       x2="554.33807"
       y2="112.68317"
       gradientUnits="userSpaceOnUse" /></defs><g
     id="layer1"
     transform="translate(-515.84973,-112.68317)"><g
       id="g164"><rect
         style="fill:url(#linearGradient164);fill-opacity:1;stroke-width:4.61654;stroke-linecap:round"
         id="rect150"
         width="76.976715"
         height="21.12735"
         x="515.84973"
         y="112.68317"
         rx="3.731113"
         ry="3.731113" /><path
         style="fill:#000000;stroke-width:0.0333845"
         d="m 526.63344,129.22748 c -0.18231,-0.0179 -0.36095,-0.0743 -0.42765,-0.13509 -0.058,-0.0529 -0.0841,-0.10661 -0.13176,-0.27154 -0.0228,-0.0792 -0.0563,-0.17164 -0.0745,-0.20558 -0.0624,-0.11702 -0.17983,-0.23853 -0.29057,-0.30052 -0.0755,-0.0423 -0.18436,-0.0706 -0.42686,-0.11113 -0.24537,-0.041 -0.34817,-0.0653 -0.4668,-0.11025 -0.15534,-0.0589 -0.31789,-0.18137 -0.32112,-0.24205 -0.005,-0.0836 0.006,-0.13264 0.05,-0.21983 0.0412,-0.0829 0.0644,-0.11049 0.19104,-0.22729 0.15744,-0.14528 0.23478,-0.23901 0.28404,-0.3443 0.0911,-0.19473 0.0265,-0.33798 -0.20161,-0.44638 -0.18737,-0.0891 -0.50146,-0.1999 -1.033,-0.36451 -0.67945,-0.21041 -0.97975,-0.31485 -1.28504,-0.44689 -0.28315,-0.12254 -0.34598,-0.16639 -0.37651,-0.26306 -0.0278,-0.0884 0.0438,-0.19093 0.21349,-0.30589 0.0448,-0.0303 0.22281,-0.12574 0.39543,-0.21192 0.42255,-0.21094 0.58895,-0.30943 0.62207,-0.36813 0.0204,-0.0363 -0.005,-0.0631 -0.14315,-0.15103 -0.28076,-0.17873 -0.46548,-0.24014 -1.67566,-0.55704 -0.42918,-0.11238 -0.52128,-0.14159 -0.6488,-0.20576 -0.17359,-0.0873 -0.27229,-0.18107 -0.32205,-0.3059 -0.0564,-0.14154 -0.0127,-0.33619 0.12417,-0.55244 0.17222,-0.27206 0.36918,-0.47732 1.43006,-1.49036 0.5002,-0.47762 0.98636,-0.94708 1.08039,-1.04324 0.31857,-0.32583 1.05621,-1.05295 1.75672,-1.73171 0.16253,-0.15747 0.39327,-0.38123 0.51281,-0.49726 0.28464,-0.27629 0.45476,-0.39935 0.71416,-0.51659 0.2382,-0.10761 0.42827,-0.14519 0.69006,-0.13625 0.24259,0.009 0.42487,0.0584 0.6536,0.18001 0.23706,0.12594 0.40509,0.27178 0.8164,0.70855 0.24857,0.26397 0.55138,0.57519 0.78292,0.80465 0.0648,0.0643 0.18106,0.17969 0.25818,0.25642 0.68055,0.67732 2.63764,2.53801 3.06972,2.91851 0.0898,0.0792 0.19959,0.18183 0.24384,0.22819 0.16957,0.17767 0.30826,0.39195 0.37353,0.57717 0.0336,0.0954 0.0464,0.3101 0.0243,0.40654 -0.046,0.20065 -0.21893,0.41123 -0.4673,0.56902 -0.10448,0.0664 -0.4118,0.22928 -0.64492,0.34187 -0.34236,0.16534 -0.46544,0.20688 -0.91518,0.30887 -0.45122,0.10237 -1.00442,0.29022 -1.40885,0.47857 -0.17172,0.08 -0.22501,0.11088 -0.28561,0.16558 -0.0625,0.0564 -0.0745,0.0736 -0.0745,0.10661 0,0.084 0.0754,0.14073 0.42997,0.32362 0.45702,0.23573 0.61496,0.34943 0.70123,0.50476 0.0446,0.0804 0.0415,0.20377 -0.007,0.29684 -0.0459,0.0873 -0.15555,0.19995 -0.28023,0.28796 -0.1516,0.10698 -0.23069,0.14264 -0.40745,0.18365 -0.21865,0.0508 -0.37552,0.0973 -0.57122,0.16967 -0.4234,0.15652 -0.69284,0.30876 -0.93523,0.52847 -0.13828,0.12531 -0.17073,0.181 -0.14638,0.25103 0.0278,0.0799 0.13896,0.15301 0.3228,0.21241 0.14078,0.0456 0.21832,0.12065 0.21832,0.2119 0,0.11376 -0.13923,0.22465 -0.48525,0.38648 -0.5487,0.25665 -1.12297,0.39191 -1.50484,0.35443 z m 0.24348,-3.71671 c 0.0714,-0.0202 0.16819,-0.0794 0.20282,-0.12417 0.023,-0.0296 0.0231,-0.033 0.004,-0.061 -0.11199,-0.16217 -1.08891,-0.39506 -2.15144,-0.51288 -0.33567,-0.0372 -0.38928,-0.04 -0.39637,-0.0202 -0.002,0.009 0.0254,0.044 0.0631,0.0788 0.12166,0.11188 0.4947,0.26557 1.0949,0.45127 0.36185,0.112 0.61304,0.17842 0.73091,0.1934 0.0574,0.007 0.12103,0.0153 0.14128,0.0179 0.0657,0.009 0.24821,-0.005 0.31104,-0.023 z m -0.31331,-4.38668 c 0.166,-0.0968 0.50711,-0.29783 0.83009,-0.48924 l 0.23818,-0.14114 0.10574,0.0541 c 0.0581,0.0297 0.17763,0.0919 0.26548,0.13788 0.29981,0.15716 0.37604,0.19466 0.38277,0.18825 0.004,-0.004 0.0434,-0.23227 0.0883,-0.50835 0.0449,-0.27607 0.0858,-0.50195 0.0909,-0.50195 0.005,0 0.12342,0.0853 0.26271,0.18943 0.57086,0.42681 0.64984,0.48378 0.65925,0.47547 0.0207,-0.0183 0.0452,-0.1383 0.0453,-0.22275 0,-0.0486 -0.009,-0.11677 -0.0197,-0.15153 -0.0511,-0.16368 -0.0302,-0.14133 -1.02704,-1.09419 -0.51348,-0.49083 -0.97308,-0.92077 -1.02133,-0.95541 -0.10786,-0.0774 -0.2524,-0.14438 -0.38256,-0.1772 -0.13921,-0.0352 -0.34312,-0.0353 -0.48524,-3.9e-4 -0.23562,0.0578 -0.50007,0.21626 -0.74616,0.44702 -0.55632,0.52163 -1.20869,1.15934 -1.81004,1.76939 -0.49517,0.50231 -0.47825,0.48215 -0.52084,0.62116 -0.0335,0.10924 -10e-4,0.18553 0.0948,0.22543 0.049,0.0203 0.10736,0.0221 0.88157,0.0276 0.54415,0.004 0.83394,0.001 0.84304,-0.006 0.0126,-0.0103 0.23101,-0.44352 0.55795,-1.10454 0.0563,-0.11388 0.10623,-0.20303 0.11087,-0.19817 0.005,0.005 0.096,0.34326 0.20278,0.75196 0.10686,0.4087 0.19918,0.74309 0.20504,0.74309 0.006,0 0.0725,-0.0361 0.14804,-0.0801 z m -3.16298,6.70186 c -0.0915,-0.0277 -0.14213,-0.0585 -0.21006,-0.12742 -0.10238,-0.10384 -0.12217,-0.16637 -0.0937,-0.29549 0.0454,-0.20571 0.20641,-0.32785 0.53672,-0.40701 0.34018,-0.0816 0.61473,-0.0438 0.77988,0.10737 0.0707,0.0647 0.0708,0.0681 0.001,0.20774 -0.12848,0.25964 -0.36697,0.45309 -0.63325,0.51367 -0.13039,0.0296 -0.28591,0.0301 -0.38131,0.001 z m 7.58763,-0.12492 c -0.12694,-0.0187 -0.22991,-0.0718 -0.29398,-0.15131 -0.11226,-0.13952 -0.0859,-0.34121 0.0647,-0.49475 l 0.0573,-0.0584 0.0922,0.0243 c 0.14682,0.0389 0.28424,0.10773 0.37425,0.18761 0.16445,0.14597 0.22864,0.36918 0.1248,0.43376 -0.0701,0.0436 -0.3017,0.0761 -0.41918,0.0587 z m 0.73706,-0.96023 c -0.36851,-0.0306 -0.64086,-0.0962 -0.68626,-0.16533 -0.0103,-0.0152 -0.005,-0.0366 0.0233,-0.0927 0.10268,-0.20578 0.30218,-0.37688 0.51865,-0.44476 0.36532,-0.11464 0.86527,-0.0305 1.06484,0.17914 0.11024,0.11589 0.16924,0.31132 0.11201,0.37142 -0.0537,0.0563 -0.23141,0.11426 -0.43066,0.14045 -0.12832,0.0168 -0.46223,0.0233 -0.60196,0.0113 z"
         id="path66" /><text
         xml:space="preserve"
         style="font-style:normal;font-variant:normal;font-weight:normal;font-stretch:normal;font-size:11.3604px;font-family:'DejaVu Sans';-inkscape-font-specification:'DejaVu Sans, Normal';font-variant-ligatures:normal;font-variant-caps:normal;font-variant-numeric:normal;font-variant-east-asian:normal;text-align:start;writing-mode:lr-tb;direction:ltr;text-anchor:start;fill:#000000;fill-opacity:1;stroke-width:2.65289;stroke-linecap:round"
         x="520.19434"
         y="131.18938"
         id="text150"
         transform="scale(1.0315702,0.96939598)"><tspan
           id="tspan150"
           x="520.19434"
           y="131.18938"
           style="font-style:normal;font-variant:normal;font-weight:normal;font-stretch:normal;font-size:11.3604px;font-family:'DejaVu Sans';-inkscape-font-specification:'DejaVu Sans, Normal';font-variant-ligatures:normal;font-variant-caps:normal;font-variant-numeric:normal;font-variant-east-asian:normal;fill:#000000;fill-opacity:1;stroke-width:2.65289">Inkscape</tspan></text></g></g></svg>
