<?xml version="1.0" encoding="UTF-8" standalone="no"?>
<!-- Created with Inkscape (http://www.inkscape.org/) -->

<svg
   width="14.880603mm"
   height="5.5899444mm"
   viewBox="0 0 56.241652 21.127349"
   version="1.1"
   id="svg1"
   xml:space="preserve"
   xmlns:xlink="http://www.w3.org/1999/xlink"
   xmlns="http://www.w3.org/2000/svg"
   xmlns:svg="http://www.w3.org/2000/svg"><defs
     id="defs1"><linearGradient
       id="linearGradient147"><stop
         style="stop-color:#ffcb11;stop-opacity:1;"
         offset="0"
         id="stop147" /><stop
         style="stop-color:#ffd747;stop-opacity:1;"
         offset="1"
         id="stop148" /></linearGradient><linearGradient
       xlink:href="#linearGradient147"
       id="linearGradient148"
       x1="411.26297"
       y1="133.81052"
       x2="411.26297"
       y2="112.68317"
       gradientUnits="userSpaceOnUse" /></defs><g
     id="layer1"
     transform="translate(-383.14215,-112.68317)"><g
       id="linux"><rect
         style="fill:url(#linearGradient148);fill-opacity:1;stroke-width:4.61654;stroke-linecap:round"
         id="rect145"
         width="56.241653"
         height="21.12735"
         x="383.14215"
         y="112.68317"
         rx="3.731113"
         ry="3.731113" /><text
         xml:space="preserve"
         style="font-style:normal;font-variant:normal;font-weight:normal;font-stretch:normal;font-size:11.3604px;font-family:'DejaVu Sans';-inkscape-font-specification:'DejaVu Sans, Normal';font-variant-ligatures:normal;font-variant-caps:normal;font-variant-numeric:normal;font-variant-east-asian:normal;text-align:start;writing-mode:lr-tb;direction:ltr;text-anchor:start;fill:#121212;fill-opacity:1;stroke-width:2.65289;stroke-linecap:round"
         x="391.54816"
         y="131.18938"
         id="text145"
         transform="scale(1.0315702,0.96939598)"><tspan
           id="tspan145"
           x="391.54816"
           y="131.18938"
           style="font-style:normal;font-variant:normal;font-weight:normal;font-stretch:normal;font-size:11.3604px;font-family:'DejaVu Sans';-inkscape-font-specification:'DejaVu Sans, Normal';font-variant-ligatures:normal;font-variant-caps:normal;font-variant-numeric:normal;font-variant-east-asian:normal;fill:#121212;fill-opacity:1;stroke-width:2.65289">Linux</tspan></text><path
         style="fill:#000000;stroke-width:0.0364345"
         d="m 395.21976,129.18628 c -0.19818,-0.0229 -0.36134,-0.0796 -0.50211,-0.17448 -0.0797,-0.0537 -0.18694,-0.16465 -0.23507,-0.24325 -0.0232,-0.0379 -0.0435,-0.0689 -0.0451,-0.0689 -10e-4,0 -0.0913,-0.009 -0.1993,-0.0209 -0.37859,-0.0405 -0.70187,-0.0668 -0.99851,-0.0816 -0.57513,-0.0286 -1.08066,0.0243 -1.40048,0.14651 -0.0376,0.0144 -0.0815,0.0308 -0.0975,0.0366 -0.016,0.006 -0.0586,0.0391 -0.0946,0.0741 -0.25016,0.24339 -0.54035,0.32235 -0.92173,0.25082 -0.16446,-0.0308 -0.30943,-0.0713 -0.70295,-0.19607 -0.65939,-0.20911 -0.98512,-0.29348 -1.38786,-0.35947 -0.2793,-0.0458 -0.37539,-0.0671 -0.5336,-0.11803 -0.18845,-0.0607 -0.27519,-0.11212 -0.32486,-0.19225 -0.0219,-0.0353 -0.0246,-0.0482 -0.0241,-0.11259 6.9e-4,-0.0969 0.0228,-0.16465 0.0831,-0.25528 0.15424,-0.23199 0.21831,-0.38097 0.21831,-0.50763 0,-0.0239 -0.0207,-0.17855 -0.046,-0.34364 -0.0661,-0.43149 -0.0634,-0.55259 0.0157,-0.70633 0.0393,-0.0763 0.14467,-0.18125 0.21515,-0.21416 0.0442,-0.0206 0.0498,-0.0211 0.33336,-0.0253 l 0.28839,-0.005 0.066,-0.0293 c 0.078,-0.0347 0.0821,-0.0408 0.15497,-0.23147 0.026,-0.0682 0.0612,-0.14394 0.0781,-0.16832 l 0.0308,-0.0443 -0.0208,-0.037 c -0.0188,-0.0334 -0.0207,-0.0476 -0.02,-0.14807 0.001,-0.22498 0.0663,-0.40307 0.2801,-0.76962 0.16824,-0.2885 0.26049,-0.45671 0.31901,-0.5816 0.0705,-0.15051 0.15362,-0.38984 0.21973,-0.63269 0.0689,-0.2531 0.10365,-0.3504 0.1713,-0.48034 0.0918,-0.17612 0.1967,-0.315 0.49418,-0.65389 0.15012,-0.17101 0.29744,-0.34173 0.32739,-0.37936 0.14549,-0.1828 0.23772,-0.3357 0.28626,-0.4746 0.0466,-0.13324 0.0602,-0.20457 0.0657,-0.34204 0.005,-0.12725 -0.004,-0.24173 -0.0551,-0.71404 -0.0311,-0.28616 -0.0481,-0.53448 -0.0594,-0.86522 -0.0173,-0.50674 0.0129,-0.78794 0.11483,-1.06661 0.0594,-0.16278 0.14016,-0.29459 0.27842,-0.45484 0.20854,-0.24175 0.40469,-0.34567 0.77989,-0.4132 0.23705,-0.0427 0.67357,-0.0587 0.82788,-0.0304 0.0372,0.007 0.11035,0.0179 0.16257,0.0247 0.18412,0.0238 0.34279,0.0725 0.52868,0.16231 0.14212,0.0687 0.21893,0.11659 0.33707,0.21041 0.10588,0.0841 0.18268,0.16601 0.2685,0.28646 0.11975,0.1681 0.14971,0.22347 0.19887,0.36772 0.10036,0.2943 0.16145,0.59039 0.1986,0.96202 0.0106,0.10106 0.0221,0.21464 0.0268,0.25226 0.005,0.0376 0.0106,0.11071 0.0137,0.16248 0.007,0.1308 0.0379,0.39204 0.0589,0.50453 0.009,0.0518 0.026,0.15178 0.036,0.22233 0.0188,0.1318 0.0639,0.31161 0.102,0.40778 0.0246,0.062 0.15578,0.30536 0.22904,0.4249 0.12112,0.19763 0.53132,0.75699 0.66867,0.91179 0.1803,0.20323 0.31429,0.37883 0.44693,0.58577 0.068,0.10612 0.19104,0.33561 0.22919,0.42756 0.0166,0.04 0.0594,0.13618 0.0952,0.21378 0.18323,0.39724 0.26904,0.77943 0.28057,1.24952 0.006,0.23277 -0.002,0.36026 -0.0338,0.53772 -0.0151,0.0851 -0.0639,0.28771 -0.0773,0.32069 -0.004,0.007 0.007,0.0131 0.032,0.0169 0.13058,0.0209 0.21324,0.197 0.26618,0.56695 0.0204,0.14203 0.0254,0.16172 0.055,0.21523 0.0609,0.11 0.23964,0.24668 0.45358,0.34681 0.0772,0.0361 0.16718,0.0821 0.20009,0.10236 0.16433,0.10082 0.23159,0.23673 0.19791,0.39979 -0.0179,0.0864 -0.05,0.14091 -0.12311,0.20886 -0.0735,0.0683 -0.14432,0.11247 -0.22989,0.14339 -0.0315,0.0118 -0.17094,0.0734 -0.30973,0.13773 -0.42781,0.19834 -0.55783,0.28921 -1.36804,0.95619 -0.0976,0.0805 -0.27079,0.19478 -0.35822,0.23666 -0.0707,0.0339 -0.18452,0.0644 -0.28344,0.0758 -0.10047,0.0118 -0.112,0.0118 -0.28195,-0.008 z m 0.37306,-0.13458 c 0.13178,-0.0341 0.15101,-0.0424 0.24432,-0.10424 0.0435,-0.0288 0.10424,-0.0666 0.13503,-0.0839 0.0307,-0.0173 0.21281,-0.16037 0.40459,-0.31793 0.19177,-0.15756 0.37952,-0.30915 0.41723,-0.33688 0.22941,-0.1687 0.63682,-0.37907 0.94622,-0.48858 0.0366,-0.0129 0.0974,-0.0432 0.13518,-0.0673 0.0629,-0.0401 0.0714,-0.0491 0.10388,-0.11024 0.046,-0.0868 0.054,-0.17092 0.0235,-0.24766 -0.0359,-0.0902 -0.16363,-0.20037 -0.30663,-0.26429 -0.0421,-0.0188 -0.10094,-0.0455 -0.13069,-0.0592 -0.0298,-0.0138 -0.0952,-0.0575 -0.1454,-0.0974 -0.16802,-0.13329 -0.25268,-0.29397 -0.30913,-0.58667 -0.0291,-0.1504 -0.0687,-0.29415 -0.0938,-0.33932 -0.0132,-0.0238 -0.0202,-0.0278 -0.0489,-0.0276 -0.0185,7e-5 -0.0498,0.009 -0.0697,0.0198 -0.0352,0.0192 -0.21598,0.17828 -0.30628,0.26955 -0.10953,0.11071 -0.14919,0.14591 -0.22498,0.19971 -0.0834,0.0592 -0.17263,0.10024 -0.26917,0.12371 -0.0793,0.0193 -0.29049,0.0118 -0.38466,-0.014 -0.112,-0.0305 -0.17761,-0.066 -0.25304,-0.13693 -0.10141,-0.0953 -0.15091,-0.18923 -0.21235,-0.40287 -0.0356,-0.12405 -0.0458,-0.13797 -0.13392,-0.18461 -0.0369,-0.0195 -0.0556,-0.0238 -0.10365,-0.0233 -0.0988,9.4e-4 -0.15758,0.0408 -0.20645,0.14037 -0.0659,0.13421 -0.0729,0.23225 -0.0729,1.02066 -10e-6,0.57345 -0.002,0.66391 -0.0144,0.70974 -0.008,0.0289 -0.018,0.0814 -0.0223,0.11671 -0.005,0.0353 -0.0141,0.0911 -0.0215,0.124 -0.007,0.0329 -0.0161,0.12335 -0.0192,0.20096 -0.005,0.11248 -0.0136,0.18399 -0.0454,0.35291 -0.0447,0.23756 -0.0469,0.21111 0.0263,0.31229 0.11601,0.16021 0.30102,0.27577 0.51104,0.31925 0.12036,0.0249 0.31444,0.0177 0.44708,-0.0167 z m -4.50416,-0.0358 c 0.1523,-0.0347 0.29003,-0.11165 0.41863,-0.23365 0.0992,-0.0941 0.1133,-0.12187 0.12357,-0.24331 0.0188,-0.22265 -0.0281,-0.43662 -0.1531,-0.69717 -0.11841,-0.24688 -0.24966,-0.44033 -0.5901,-0.86977 -0.25177,-0.3176 -0.28756,-0.36745 -0.40513,-0.56423 -0.21505,-0.35991 -0.29624,-0.47417 -0.42066,-0.59201 -0.13284,-0.1258 -0.26134,-0.20387 -0.39724,-0.24137 -0.0456,-0.0126 -0.0531,-0.0123 -0.12032,0.004 -0.0394,0.009 -0.10482,0.0326 -0.14535,0.0515 -0.12572,0.0586 -0.18491,0.14289 -0.2229,0.31733 -0.0333,0.1529 -0.0487,0.1719 -0.17101,0.20985 -0.0678,0.0211 -0.0893,0.0232 -0.29412,0.0291 -0.23228,0.007 -0.32893,0.0166 -0.41888,0.0429 -0.0459,0.0134 -0.0596,0.0225 -0.0876,0.0572 -0.0709,0.0884 -0.1237,0.2292 -0.12395,0.33122 -8e-5,0.0534 0.019,0.17458 0.0545,0.34634 0.0411,0.19817 0.0502,0.29942 0.0366,0.40324 -0.0185,0.14084 -0.0526,0.22723 -0.16839,0.42624 -0.0668,0.11483 -0.10976,0.21322 -0.12328,0.28216 -0.008,0.0443 -0.008,0.0529 0.0106,0.0894 0.046,0.0901 0.19346,0.16402 0.44215,0.22142 0.0519,0.012 0.19569,0.0375 0.3196,0.0568 0.46057,0.0715 0.77487,0.1523 1.34279,0.34493 0.42785,0.14512 0.67576,0.21979 0.82461,0.24836 0.0428,0.008 0.19403,-0.004 0.26873,-0.0201 z m 1.6914,-1.09555 c 0.0594,-0.005 0.16087,-0.018 0.2253,-0.0293 0.61502,-0.10765 1.1094,-0.40144 1.52474,-0.9061 l 0.0774,-0.0941 -0.005,-0.13731 c -0.004,-0.10989 -0.009,-0.14832 -0.0248,-0.19241 -0.0185,-0.0515 -0.0194,-0.0647 -0.0138,-0.20473 0.0121,-0.30056 0.0536,-0.45205 0.16062,-0.5859 0.1093,-0.13687 0.25235,-0.16497 0.42239,-0.0829 l 0.0687,0.0332 0.0106,-0.0991 c 0.0205,-0.19507 0.0274,-0.36908 0.0276,-0.6892 4.2e-4,-0.46488 -0.014,-0.63991 -0.0723,-0.88063 -0.0148,-0.0612 -0.0314,-0.13042 -0.0367,-0.15393 -0.0187,-0.0812 -0.0821,-0.25603 -0.12869,-0.35448 -0.0328,-0.0693 -0.0874,-0.15653 -0.18341,-0.29277 -0.0752,-0.10671 -0.17148,-0.25658 -0.21395,-0.33303 -0.0425,-0.0765 -0.0807,-0.14306 -0.0848,-0.14803 -0.0246,-0.0289 -0.081,-0.28165 -0.0878,-0.39383 -0.005,-0.082 -0.007,-0.0885 -0.048,-0.15819 -0.0235,-0.04 -0.0741,-0.13233 -0.11259,-0.20524 -0.0384,-0.073 -0.0932,-0.17295 -0.12181,-0.22234 -0.0286,-0.0494 -0.0825,-0.16098 -0.11982,-0.24798 -0.0742,-0.17309 -0.15669,-0.35115 -0.16737,-0.36139 -0.004,-0.004 -0.0857,0.0519 -0.18198,0.1232 -0.36702,0.27172 -0.64194,0.41662 -0.9277,0.48898 -0.10047,0.0254 -0.10953,0.0262 -0.29739,0.0262 -0.17118,-3e-5 -0.20201,-0.002 -0.26444,-0.0186 -0.10942,-0.0288 -0.18193,-0.0668 -0.2488,-0.13035 -0.0595,-0.0566 -0.26386,-0.22204 -0.27423,-0.22204 -0.004,0 -0.006,0.0164 -0.006,0.0363 -2.7e-4,0.0507 -0.0291,0.16818 -0.0621,0.25412 -0.0153,0.0399 -0.0925,0.1899 -0.17129,0.33351 -0.14254,0.25961 -0.17811,0.3347 -0.25534,0.53901 -0.0416,0.11024 -0.0574,0.1681 -0.084,0.30784 -0.0148,0.0776 -0.0258,0.10095 -0.2516,0.53018 -0.12989,0.24692 -0.26284,0.5086 -0.29547,0.5815 -0.14194,0.31717 -0.23715,0.64755 -0.26852,0.93185 -0.0106,0.0932 -0.006,0.365 0.006,0.43934 0.006,0.0316 0.005,0.0326 -0.0138,0.0231 -0.0339,-0.0172 -0.12336,-0.10576 -0.15592,-0.1544 -0.0767,-0.11447 -0.10294,-0.22811 -0.0946,-0.40897 0.0118,-0.24791 0.0755,-0.49015 0.21955,-0.83093 0.11706,-0.27704 0.25179,-0.51456 0.38078,-0.67129 0.0232,-0.0282 0.0454,-0.0562 0.0493,-0.0623 0.009,-0.0141 -0.009,-0.036 -0.0309,-0.036 -0.009,0 -0.028,-0.009 -0.0425,-0.0209 l -0.0262,-0.0209 -0.032,0.0402 c -0.11506,0.14446 -0.27077,0.44192 -0.46659,0.89154 -0.1385,0.31802 -0.20607,0.63013 -0.18133,0.83753 0.0221,0.18569 0.0832,0.32653 0.19266,0.44497 0.1545,0.16705 0.42281,0.36961 0.7952,0.60031 0.18452,0.11436 0.23812,0.15269 0.36498,0.26127 0.27021,0.23126 0.44159,0.41498 0.51179,0.54864 0.0285,0.0541 0.0334,0.0721 0.0334,0.11972 -9e-5,0.0839 -0.0246,0.12434 -0.13874,0.22949 -0.10659,0.0981 -0.18671,0.1437 -0.26896,0.15288 -0.0383,0.005 -0.0473,0.008 -0.0473,0.0214 0,0.0241 0.121,0.23775 0.15767,0.27841 0.076,0.0842 0.24804,0.17784 0.40559,0.22064 0.23292,0.0633 0.53327,0.082 0.87416,0.0543 z m 4.13086,-2.09321 c 0.0209,-0.0126 0.009,-0.11588 -0.0197,-0.17544 -0.0333,-0.0685 -0.11353,-0.16063 -0.18071,-0.20762 -0.15536,-0.1087 -0.33609,-0.16175 -0.63661,-0.18699 -0.0818,-0.007 -0.1612,-0.0147 -0.17647,-0.0173 l -0.0278,-0.005 0.0349,-0.11694 c 0.0772,-0.25851 0.11412,-0.48899 0.1217,-0.75941 0.0119,-0.42452 -0.0609,-0.71225 -0.24689,-0.97542 -0.12928,-0.183 -0.25977,-0.29127 -0.41999,-0.34849 -0.0774,-0.0276 -0.0995,-0.0275 -0.12297,7.6e-4 -0.0281,0.0339 -0.0233,0.0441 0.0312,0.0671 0.0767,0.0321 0.19308,0.10765 0.26384,0.17095 0.12483,0.11176 0.20814,0.2357 0.26741,0.39794 0.16294,0.44596 0.14807,0.91557 -0.0467,1.47338 l -0.0412,0.11801 -0.0461,0.0221 c -0.13777,0.066 -0.25878,0.17895 -0.36208,0.33795 -0.0424,0.0651 -0.0496,0.0998 -0.0252,0.11903 0.0131,0.0106 0.0192,0.007 0.0518,-0.0302 0.0204,-0.0231 0.0849,-0.0913 0.1435,-0.1517 0.0995,-0.10259 0.11201,-0.11224 0.18925,-0.14855 0.12607,-0.0592 0.19208,-0.0691 0.3756,-0.0567 0.17696,0.0119 0.27849,0.0311 0.4058,0.0765 0.12233,0.0436 0.18143,0.0724 0.22478,0.10953 0.0398,0.0341 0.18051,0.21905 0.18051,0.23724 0,0.0131 0.0337,0.0571 0.0434,0.0568 0.004,-7e-5 0.0118,-0.004 0.0185,-0.007 z m -4.25086,-4.14417 c 0.10424,-0.0206 0.20084,-0.0532 0.32877,-0.11106 0.16403,-0.0742 0.25157,-0.12442 0.58879,-0.33785 0.31348,-0.19838 0.37964,-0.25143 0.42952,-0.34439 0.0309,-0.0575 0.0407,-0.15924 0.0172,-0.17793 -0.008,-0.007 -0.0281,-0.0249 -0.0439,-0.0408 -0.0831,-0.0831 -0.22968,-0.15213 -0.54699,-0.25754 -0.0818,-0.0272 -0.19874,-0.0691 -0.2599,-0.0929 -0.13816,-0.0541 -0.29984,-0.10506 -0.42951,-0.13518 -0.14084,-0.0327 -0.2589,-0.0325 -0.365,7.8e-4 -0.0987,0.0309 -0.23043,0.0873 -0.35568,0.15194 -0.27649,0.14279 -0.47715,0.3331 -0.49714,0.47147 -0.005,0.0339 -0.001,0.042 0.0417,0.10318 0.0374,0.0529 0.0638,0.0781 0.12942,0.124 0.26673,0.18646 0.49257,0.25788 0.73456,0.23233 0.31786,-0.0335 0.66206,-0.1853 1.07144,-0.47228 0.0459,-0.0321 0.0854,-0.0585 0.0879,-0.0585 0.002,0 0.005,0.0164 0.005,0.0365 0,0.0272 0.005,0.0392 0.018,0.0471 0.009,0.006 0.018,0.0158 0.018,0.0219 0,0.006 -0.0456,0.0396 -0.10141,0.0745 -0.47165,0.2939 -0.84921,0.43569 -1.1603,0.43576 -0.24999,4e-5 -0.53388,-0.10317 -0.77865,-0.28328 -0.0259,-0.019 -0.0256,-0.0184 0.0129,0.0529 0.0343,0.0634 0.0583,0.0907 0.19738,0.22496 0.0871,0.084 0.18459,0.17191 0.21682,0.19531 0.0763,0.0554 0.20239,0.11318 0.29288,0.1342 0.0908,0.0211 0.25502,0.0234 0.34864,0.005 z m -0.4422,-1.26034 c -0.009,-0.006 -0.0118,-0.0205 -0.008,-0.0558 0.006,-0.0628 0.0282,-0.0925 0.0773,-0.10036 0.0202,-0.004 0.0489,-0.012 0.064,-0.0193 0.0358,-0.0175 0.0435,-0.0169 0.0557,0.005 0.0166,0.0294 0.002,0.0586 -0.0611,0.12027 -0.0485,0.0476 -0.0647,0.0585 -0.0873,0.0584 -0.0153,-7e-5 -0.0334,-0.004 -0.0402,-0.008 z m 0.46147,0.001 c -0.006,-0.004 -0.0312,-0.0328 -0.0564,-0.0652 -0.0364,-0.0468 -0.0458,-0.0655 -0.0458,-0.0918 0,-0.0297 0.002,-0.0331 0.0228,-0.0331 0.0953,0 0.22475,0.15393 0.158,0.18783 -0.0202,0.0106 -0.0634,0.0118 -0.0788,0.002 z m 1.16224,0.0473 c 0.002,-0.0153 0.0173,-0.0955 0.0324,-0.17832 0.0646,-0.35416 0.0523,-0.6119 -0.0379,-0.7971 -0.0487,-0.10001 -0.16137,-0.18117 -0.29451,-0.21208 -0.0709,-0.0165 -0.22577,-0.0145 -0.2974,0.004 -0.0941,0.024 -0.20604,0.0813 -0.23658,0.12127 -0.0393,0.0514 -0.0848,0.14751 -0.0972,0.20523 -0.0204,0.0952 0.004,0.30135 0.0488,0.42851 0.048,0.13384 0.0549,0.14384 0.11659,0.16791 0.0307,0.012 0.0568,0.0208 0.0581,0.0198 10e-4,-10e-4 -0.004,-0.0152 -0.0106,-0.0312 -0.0195,-0.0444 -0.0259,-0.15435 -0.0155,-0.27122 0.0118,-0.13238 0.042,-0.20326 0.11318,-0.2643 0.0694,-0.0595 0.13038,-0.0835 0.21242,-0.0835 0.0594,-2e-5 0.0741,0.004 0.12166,0.028 0.0298,0.0154 0.0787,0.0503 0.10882,0.0778 0.0516,0.0469 0.0567,0.0552 0.09,0.14726 0.0341,0.0946 0.0352,0.10095 0.0351,0.21295 -10e-5,0.10118 -0.002,0.12176 -0.0214,0.16632 -0.0338,0.0806 -0.10259,0.14116 -0.19434,0.17096 -0.0173,0.006 -0.0171,0.007 0.005,0.0216 0.0121,0.008 0.044,0.0183 0.0708,0.0215 0.0302,0.004 0.0732,0.0182 0.11306,0.0386 0.0354,0.0181 0.0668,0.0332 0.0699,0.0335 0.004,3.1e-4 0.008,-0.0119 0.0106,-0.0272 z m -2.05113,-0.0798 c 0.001,-0.005 -0.0154,-0.0188 -0.0375,-0.0321 -0.0704,-0.0422 -0.11918,-0.11318 -0.13909,-0.20214 -0.0128,-0.0573 -0.0136,-0.27129 -0.001,-0.31499 0.0192,-0.0675 0.11612,-0.18223 0.17587,-0.20799 0.0444,-0.0191 0.12843,-0.0209 0.17196,-0.004 0.0173,0.007 0.0537,0.0325 0.0808,0.0568 0.0459,0.0412 0.0515,0.0507 0.0777,0.1308 0.0354,0.10859 0.0522,0.19722 0.0526,0.27667 2.9e-4,0.0562 0.002,0.062 0.0184,0.062 0.012,0 0.018,-0.006 0.018,-0.0171 0,-0.009 0.008,-0.0245 0.0171,-0.0333 0.0221,-0.0211 0.0328,-0.14441 0.0245,-0.28398 -0.009,-0.15811 -0.0407,-0.24203 -0.12899,-0.34542 -0.079,-0.0925 -0.15407,-0.12756 -0.27309,-0.12746 -0.13125,1.1e-4 -0.22328,0.0615 -0.28722,0.19161 -0.072,0.14658 -0.0928,0.23905 -0.094,0.41901 -10e-4,0.19088 0.0348,0.2943 0.15154,0.43436 l 0.0579,0.0694 0.0561,-0.0324 c 0.0308,-0.0178 0.0573,-0.0359 0.0588,-0.0402 z m 0.25514,-0.42309 c 0,-0.0599 -0.0269,-0.15139 -0.0571,-0.19399 -0.0462,-0.0653 -0.12908,-0.0995 -0.15021,-0.0621 -0.006,0.009 -0.0156,0.0171 -0.0228,0.0171 -0.009,0 -0.0132,0.0106 -0.0132,0.0385 v 0.0385 h 0.0631 c 0.0607,0 0.0631,8e-4 0.0631,0.0206 0,0.0118 0.008,0.0451 0.0179,0.0748 0.009,0.0298 0.018,0.0648 0.018,0.0778 1e-4,0.0221 0.002,0.0235 0.0407,0.0235 h 0.0406 z m 1.65402,0.0179 c -0.0106,-0.0118 -0.0185,-0.04 -0.0238,-0.09 -0.009,-0.0861 -0.0212,-0.11129 -0.0732,-0.15404 -0.0606,-0.0498 -0.0706,-0.0521 -0.12298,-0.0288 -0.0251,0.0106 -0.0457,0.0228 -0.0459,0.0261 -10e-4,0.0169 0.0433,0.0665 0.0636,0.0709 0.0438,0.009 0.0965,0.0774 0.12475,0.16047 0.0106,0.0308 0.0125,0.0321 0.0521,0.0321 0.0405,0 0.0409,-3.6e-4 0.0253,-0.0168 z"
         id="path62" /></g></g></svg>
