<?xml version="1.0" encoding="UTF-8" standalone="no"?>
<!-- Created with Inkscape (http://www.inkscape.org/) -->

<svg
   width="18.402452mm"
   height="5.5899444mm"
   viewBox="0 0 69.55258 21.127349"
   version="1.1"
   id="svg1"
   xml:space="preserve"
   xmlns:xlink="http://www.w3.org/1999/xlink"
   xmlns="http://www.w3.org/2000/svg"
   xmlns:svg="http://www.w3.org/2000/svg"><defs
     id="defs1"><linearGradient
       id="linearGradient142"><stop
         style="stop-color:#4e903a;stop-opacity:0.98039216;"
         offset="0"
         id="stop141" /><stop
         style="stop-color:#5fb047;stop-opacity:1;"
         offset="1"
         id="stop142" /></linearGradient><linearGradient
       xlink:href="#linearGradient142"
       id="linearGradient141"
       gradientUnits="userSpaceOnUse"
       x1="113.09625"
       y1="132.4574"
       x2="113.09625"
       y2="114.03628"
       gradientTransform="matrix(1.1469087,0,0,1.1469087,121.06702,-18.106035)" /></defs><g
     id="layer1"
     transform="translate(-214.63991,-112.68317)"><g
       id="nodejs"><rect
         style="fill:url(#linearGradient141);fill-opacity:1;stroke-width:4.61654;stroke-linecap:round"
         id="rect139"
         width="69.552582"
         height="21.12735"
         x="214.63991"
         y="112.68317"
         rx="3.731113"
         ry="3.731113" /><path
         style="fill:#f7f7f7;fill-opacity:1;stroke-width:0.0260513"
         d="m 224.61639,129.16816 c -0.0514,-0.0182 -0.34632,-0.17344 -0.65521,-0.34508 -0.3089,-0.17163 -0.62782,-0.34815 -0.70872,-0.39225 -0.52617,-0.28696 -0.53644,-0.31075 -0.1872,-0.43372 0.12496,-0.044 0.29537,-0.11575 0.37854,-0.15943 0.0831,-0.0437 0.1723,-0.0794 0.19801,-0.0794 0.0257,0 0.32124,0.14845 0.65668,0.3299 0.33545,0.18144 0.62281,0.3299 0.63856,0.3299 0.0158,0 0.10948,-0.044 0.20835,-0.0978 0.74738,-0.4068 0.88307,-0.48114 0.94207,-0.51617 0.0367,-0.0218 0.13286,-0.074 0.21379,-0.11615 0.0808,-0.0421 0.29752,-0.15904 0.48139,-0.25987 0.41101,-0.2254 1.62416,-0.88749 2.21974,-1.21145 0.2427,-0.13205 0.46837,-0.26366 0.50146,-0.29254 l 0.0601,-0.0525 v -2.45269 -2.45269 l -0.0601,-0.0517 c -0.0592,-0.0509 -0.3999,-0.24682 -0.68866,-0.39594 -0.0808,-0.0419 -0.16015,-0.0855 -0.1761,-0.0973 -0.0159,-0.012 -0.11227,-0.0653 -0.21394,-0.11922 -0.10172,-0.0539 -0.34741,-0.18691 -0.546,-0.29577 -0.19857,-0.1088 -0.43926,-0.23984 -0.53487,-0.29111 -0.0956,-0.0514 -0.6697,-0.36372 -1.27575,-0.69431 -0.60605,-0.3306 -1.11501,-0.60108 -1.13101,-0.60108 -0.016,0 -0.43477,0.2212 -0.93062,0.49157 -0.49585,0.27037 -1.23249,0.67174 -1.63698,0.89193 -0.40451,0.2202 -1.00626,0.54785 -1.33721,0.72812 -0.33095,0.18029 -0.62881,0.35189 -0.66191,0.38134 l -0.0601,0.0536 v 2.47808 2.47805 l 0.0601,0.052 c 0.0332,0.0286 0.18653,0.12083 0.34098,0.20504 0.15445,0.0842 0.42524,0.23407 0.60175,0.33305 0.39308,0.22042 0.60689,0.29345 0.80289,0.27426 0.22231,-0.0218 0.38291,-0.12043 0.48366,-0.29716 0.0485,-0.0853 0.0509,-0.1917 0.0579,-2.62446 0.005,-1.80248 0.0157,-2.54539 0.0367,-2.56938 0.022,-0.0252 0.1243,-0.0337 0.39971,-0.0337 0.33864,0 0.37256,0.004 0.39789,0.0491 0.0186,0.0328 0.0276,0.87794 0.0276,2.5608 0,2.78022 0.002,2.74444 -0.17047,3.08897 -0.28745,0.57435 -1.03389,0.79144 -1.81085,0.52663 -0.2966,-0.10105 -1.54023,-0.75421 -1.72807,-0.90756 -0.0675,-0.0552 -0.14752,-0.15948 -0.20059,-0.26176 l -0.0882,-0.17007 -0.007,-2.65067 c -0.007,-2.36895 -0.003,-2.66553 0.0357,-2.79049 0.0444,-0.14475 0.14686,-0.30523 0.25618,-0.40105 0.0561,-0.0492 0.40088,-0.24564 0.90544,-0.51591 0.0956,-0.0512 0.36037,-0.19591 0.58837,-0.32154 0.22799,-0.12564 0.46868,-0.25751 0.53488,-0.29301 0.0661,-0.0356 0.63784,-0.34748 1.27034,-0.69325 1.55891,-0.85223 1.51235,-0.83021 1.78425,-0.84345 0.27751,-0.0135 0.36251,0.0154 0.88081,0.29946 0.21106,0.11561 0.41985,0.22965 0.46397,0.25329 0.0992,0.053 0.6715,0.36524 2.05928,1.12298 0.58837,0.32125 1.16603,0.6352 1.28371,0.69768 0.35142,0.18657 0.50139,0.29136 0.60616,0.42352 0.19351,0.24412 0.18632,0.1195 0.17739,3.07217 l -0.008,2.63917 -0.0697,0.14073 c -0.0958,0.19384 -0.21405,0.31349 -0.42206,0.42707 -0.0973,0.0532 -0.43571,0.23719 -0.75197,0.40897 -0.31624,0.1718 -0.67126,0.36628 -0.78894,0.43217 -0.11762,0.0659 -0.26811,0.14821 -0.3343,0.18292 -0.0661,0.0348 -0.23468,0.12592 -0.3744,0.20273 -0.13974,0.0768 -0.54291,0.29732 -0.89593,0.49004 -0.35302,0.19273 -0.78574,0.42908 -0.9616,0.52522 -0.23343,0.12764 -0.36925,0.18468 -0.50319,0.21142 -0.22339,0.0446 -0.50822,0.0446 -0.63461,3e-5 z m 1.06977,-3.33982 c -0.45025,-0.0532 -0.84378,-0.1726 -1.12324,-0.34089 -0.37341,-0.22484 -0.61069,-0.62005 -0.65714,-1.09442 -0.0239,-0.24401 0.004,-0.2636 0.37892,-0.2636 0.30159,0 0.43899,0.0184 0.45176,0.0606 0.004,0.0155 0.0291,0.11321 0.0543,0.21724 0.0776,0.32003 0.21693,0.46705 0.54423,0.57372 0.32265,0.1052 0.92391,0.14156 1.42982,0.0866 0.5716,-0.0621 0.82598,-0.25354 0.83131,-0.62549 0.003,-0.19501 -0.0477,-0.26727 -0.25688,-0.36798 -0.24762,-0.11923 -0.51983,-0.17073 -1.64384,-0.31135 -1.11418,-0.13938 -1.59199,-0.46722 -1.65586,-1.13618 -0.0675,-0.70674 0.36408,-1.22825 1.1856,-1.43264 0.48069,-0.11963 1.33801,-0.11041 1.87823,0.02 0.67223,0.16241 1.08746,0.5793 1.19952,1.20435 0.0425,0.2367 0.0422,0.24469 -0.008,0.27946 -0.0611,0.0424 -0.68268,0.0514 -0.76212,0.0107 -0.0267,-0.0136 -0.0571,-0.0679 -0.0675,-0.12056 -0.0278,-0.14073 -0.14486,-0.3613 -0.23733,-0.44708 -0.0444,-0.0412 -0.15434,-0.10652 -0.24429,-0.14526 -0.4039,-0.17378 -1.36899,-0.16868 -1.74798,0.009 -0.22168,0.10413 -0.34923,0.31741 -0.312,0.52185 0.0334,0.1835 0.11803,0.23812 0.53513,0.34556 0.1464,0.0377 0.83003,0.14706 1.1901,0.19036 0.29839,0.0359 0.68573,0.11576 0.93943,0.19368 0.6071,0.1865 0.9059,0.55517 0.9059,1.11778 0,0.72023 -0.45891,1.20212 -1.32706,1.3935 -0.24059,0.053 -0.37659,0.0659 -0.78571,0.074 -0.27212,0.005 -0.58503,-7e-4 -0.69533,-0.0138 z"
         id="path60" /><text
         xml:space="preserve"
         style="font-style:normal;font-variant:normal;font-weight:normal;font-stretch:normal;font-size:11.3604px;font-family:'DejaVu Sans';-inkscape-font-specification:'DejaVu Sans, Normal';font-variant-ligatures:normal;font-variant-caps:normal;font-variant-numeric:normal;font-variant-east-asian:normal;text-align:start;writing-mode:lr-tb;direction:ltr;text-anchor:start;fill:#f7f7f7;fill-opacity:1;stroke-width:2.65289;stroke-linecap:round"
         x="228.20276"
         y="131.18938"
         id="text140"
         transform="scale(1.0315702,0.969396)"><tspan
           id="tspan140"
           x="228.20276"
           y="131.18938"
           style="font-style:normal;font-variant:normal;font-weight:normal;font-stretch:normal;font-size:11.3604px;font-family:'DejaVu Sans';-inkscape-font-specification:'DejaVu Sans, Normal';font-variant-ligatures:normal;font-variant-caps:normal;font-variant-numeric:normal;font-variant-east-asian:normal;fill:#f7f7f7;fill-opacity:1;stroke-width:2.65289">Node.js</tspan></text></g></g></svg>
