<?xml version="1.0" encoding="UTF-8" standalone="no"?>
<!-- Created with Inkscape (http://www.inkscape.org/) -->

<svg
   width="17.725458mm"
   height="5.5899425mm"
   viewBox="0 0 66.993861 21.127342"
   version="1.1"
   id="svg1"
   xml:space="preserve"
   xmlns:xlink="http://www.w3.org/1999/xlink"
   xmlns="http://www.w3.org/2000/svg"
   xmlns:svg="http://www.w3.org/2000/svg"><defs
     id="defs1"><linearGradient
       id="linearGradient136"><stop
         style="stop-color:#1d2e52;stop-opacity:1;"
         offset="0"
         id="stop136" /><stop
         style="stop-color:#273e6e;stop-opacity:1;"
         offset="1"
         id="stop137" /></linearGradient><linearGradient
       xlink:href="#linearGradient136"
       id="linearGradient137"
       x1="113.09625"
       y1="132.4574"
       x2="113.09625"
       y2="114.03628"
       gradientUnits="userSpaceOnUse" /></defs><g
     id="layer1"
     transform="translate(-136.95159,-112.68316)"><g
       id="python"
       transform="matrix(1.1469087,0,0,1.1469087,43.378695,-18.106035)"><rect
         style="fill:url(#linearGradient137);fill-opacity:1;stroke-width:4.0252;stroke-linecap:round"
         id="rect131"
         width="58.412548"
         height="18.42112"
         x="81.587044"
         y="114.03628"
         rx="3.253191"
         ry="3.253191" /><g
         id="g136"
         transform="translate(-45.462795,1.5273262)"><path
           id="path58"
           style="fill:#ebebeb;fill-opacity:1;stroke-width:0.0354576"
           d="m 136.08585,116.89683 c -0.17544,-10e-6 -0.35266,0.002 -0.42323,0.006 -0.25018,0.0152 -0.44075,0.0351 -0.62691,0.0657 -0.0345,0.006 -0.0803,0.0123 -0.10188,0.0147 -0.0645,0.007 -0.22475,0.0444 -0.34217,0.0795 -0.0287,0.009 -0.0652,0.0185 -0.081,0.0221 -0.0492,0.0113 -0.14023,0.0447 -0.22196,0.0816 -0.0306,0.0138 -0.0586,0.0251 -0.0624,0.0251 -0.008,0 -0.10638,0.0515 -0.14034,0.0737 -0.0133,0.009 -0.0354,0.0211 -0.0493,0.0277 -0.0195,0.009 -0.12278,0.083 -0.15548,0.11098 -0.0382,0.0327 -0.11821,0.11755 -0.14546,0.15441 -0.0191,0.0259 -0.037,0.0496 -0.0396,0.0527 -0.01,0.0113 -0.037,0.0599 -0.037,0.066 0,0.003 -0.006,0.0172 -0.0128,0.0304 -0.0155,0.0292 -0.0411,0.10437 -0.0507,0.14834 -0.008,0.0354 -0.008,0.0703 -0.006,0.82908 l 0.001,0.4449 h 1.27202 1.27209 v 0.17114 0.17121 l -1.87675,-4e-4 -1.87675,-4.7e-4 -0.0784,0.0132 c -0.0431,0.007 -0.0913,0.0151 -0.10714,0.0173 -0.0542,0.008 -0.15133,0.0395 -0.2612,0.0855 -0.0756,0.0316 -0.11568,0.0525 -0.17759,0.0923 -0.0244,0.0157 -0.0484,0.0298 -0.0532,0.0315 -0.0148,0.005 -0.16126,0.12413 -0.20347,0.16541 -0.0547,0.0535 -0.14458,0.1569 -0.16636,0.19138 -0.01,0.0157 -0.0296,0.0431 -0.0437,0.061 -0.0141,0.0179 -0.0357,0.0508 -0.0479,0.0731 -0.0122,0.0223 -0.0361,0.0651 -0.053,0.0951 -0.0169,0.03 -0.0394,0.0735 -0.0499,0.0967 -0.041,0.0906 -0.12007,0.30231 -0.1269,0.33959 -0.002,0.0109 -0.0115,0.05 -0.0211,0.0868 -0.0494,0.18931 -0.0824,0.3757 -0.0913,0.51512 -0.003,0.0425 -0.007,0.10509 -0.0103,0.13917 -0.0214,0.2455 -0.0126,0.71254 0.0187,0.99389 0.0153,0.13774 0.049,0.32177 0.0835,0.45663 0.01,0.0385 0.0179,0.0744 0.0179,0.0797 0,0.0203 0.0706,0.22851 0.098,0.28899 0.006,0.0123 0.0115,0.0292 0.0132,0.0376 0.004,0.0202 0.0343,0.0835 0.078,0.16406 0.0195,0.0359 0.0355,0.0675 0.0355,0.0701 0,0.007 0.0659,0.10845 0.0894,0.13769 0.0112,0.0139 0.0203,0.0276 0.0203,0.0304 0,0.006 0.0442,0.0641 0.0574,0.0755 0.0121,0.0105 0.0523,0.0578 0.0523,0.0617 0,0.007 0.15229,0.14548 0.18271,0.16655 0.0177,0.0123 0.0338,0.0247 0.0358,0.0277 0.006,0.008 0.0801,0.0566 0.0875,0.0566 0.004,0 0.0133,0.005 0.0214,0.0117 0.0293,0.0232 0.17213,0.092 0.19138,0.0923 0.005,7e-5 0.0194,0.004 0.0315,0.01 0.047,0.0203 0.18369,0.0524 0.26205,0.0615 v 7e-5 c 0.009,10e-4 0.23364,0.002 0.50001,0.003 l 0.48429,7.4e-4 0.002,-0.65807 c 0.001,-0.47202 0.004,-0.66929 0.008,-0.69773 0.0139,-0.0894 0.0285,-0.16237 0.0454,-0.22802 0.01,-0.0382 0.0203,-0.0791 0.0233,-0.0909 0.009,-0.0346 0.0507,-0.13724 0.0787,-0.19307 0.0142,-0.0283 0.0258,-0.0537 0.0258,-0.0563 0,-0.005 0.0156,-0.0352 0.0203,-0.0389 0.002,-10e-4 0.0159,-0.0226 0.0314,-0.0471 0.0155,-0.0245 0.0334,-0.0502 0.04,-0.057 0.007,-0.007 0.0171,-0.0213 0.0235,-0.0322 0.0126,-0.0217 0.0443,-0.0593 0.073,-0.0868 0.0101,-0.01 0.0308,-0.0316 0.0462,-0.0487 0.0154,-0.0171 0.0366,-0.0363 0.0471,-0.0427 0.0105,-0.006 0.0284,-0.02 0.0399,-0.0303 0.0265,-0.0236 0.10114,-0.0766 0.10792,-0.0766 0.003,0 0.0126,-0.005 0.0217,-0.0118 0.0243,-0.0173 0.14899,-0.0803 0.17333,-0.0876 0.0115,-0.003 0.0359,-0.0117 0.0542,-0.0183 0.16157,-0.0582 0.3018,-0.084 0.49169,-0.0905 0.0704,-0.002 0.71013,-0.005 1.42167,-0.005 0.87314,-1.4e-4 1.3113,-0.002 1.34781,-0.005 0.15495,-0.0151 0.3644,-0.0643 0.50079,-0.11751 0.0431,-0.0168 0.15949,-0.0725 0.16949,-0.0812 0.003,-0.002 0.009,-0.004 0.0139,-0.004 0.005,0 0.01,-0.002 0.0107,-0.004 9.5e-4,-0.002 0.0245,-0.0178 0.0522,-0.0351 0.0278,-0.0172 0.0548,-0.0359 0.0601,-0.0415 0.005,-0.006 0.0213,-0.0173 0.0357,-0.026 0.0361,-0.022 0.18023,-0.16158 0.18023,-0.17452 0,-0.002 0.009,-0.0146 0.0198,-0.0271 0.0109,-0.0125 0.0301,-0.038 0.0427,-0.0569 0.0126,-0.0188 0.0283,-0.0422 0.035,-0.0519 0.007,-0.01 0.0122,-0.0201 0.0122,-0.0231 0,-0.003 0.0127,-0.0308 0.0283,-0.0619 0.031,-0.0619 0.0739,-0.17691 0.0791,-0.21216 0.002,-0.0123 0.008,-0.0446 0.0134,-0.0719 0.0287,-0.14031 0.0271,-0.0706 0.0303,-1.37064 0.002,-0.66114 0.001,-1.22363 -8.5e-4,-1.24996 -0.003,-0.0426 -0.0109,-0.0798 -0.0384,-0.19199 -0.009,-0.0387 -0.0604,-0.14519 -0.0901,-0.18842 -0.012,-0.0175 -0.0218,-0.0338 -0.0218,-0.0363 0,-0.005 -0.0297,-0.0478 -0.0413,-0.0588 -0.005,-0.004 -0.0236,-0.0263 -0.0422,-0.0488 -0.0187,-0.0225 -0.0515,-0.057 -0.0729,-0.0764 -0.0214,-0.0195 -0.0514,-0.0471 -0.0666,-0.0614 -0.0152,-0.0143 -0.0298,-0.026 -0.0324,-0.026 -0.003,0 -0.0238,-0.0144 -0.0471,-0.0321 -0.0499,-0.038 -0.0909,-0.0652 -0.11275,-0.0749 -0.009,-0.004 -0.0315,-0.0165 -0.0508,-0.0281 -0.0903,-0.0543 -0.32136,-0.15217 -0.41718,-0.17674 -0.0213,-0.005 -0.0611,-0.0169 -0.0884,-0.0253 -0.0672,-0.0208 -0.28312,-0.0729 -0.31871,-0.077 -0.0158,-0.002 -0.0757,-0.0108 -0.13316,-0.0199 -0.18425,-0.0293 -0.34545,-0.0466 -0.58511,-0.0628 -0.0635,-0.004 -0.2372,-0.006 -0.41263,-0.006 z m -1.3702,0.76331 c 0.0536,0.004 0.12763,0.0235 0.1623,0.0421 0.0154,0.008 0.0309,0.0151 0.0345,0.0151 0.0292,0 0.17817,0.14471 0.17817,0.1731 0,0.003 0.006,0.0175 0.0133,0.0327 0.046,0.0955 0.0499,0.22435 0.01,0.31713 -0.007,0.0164 -0.0175,0.0409 -0.023,0.0545 -0.0161,0.0396 -0.11113,0.14082 -0.14958,0.15941 -0.011,0.005 -0.0389,0.0189 -0.0618,0.0302 -0.023,0.0112 -0.0606,0.0249 -0.0836,0.0304 -0.0388,0.009 -0.12566,0.0172 -0.14368,0.0132 -0.004,-9.5e-4 -0.0254,-0.004 -0.047,-0.008 -0.10691,-0.0164 -0.2328,-0.0914 -0.29092,-0.1733 -0.036,-0.0508 -0.0662,-0.11523 -0.0769,-0.1646 -0.0238,-0.10955 -0.001,-0.22498 0.0626,-0.31969 0.01,-0.0146 0.0178,-0.0278 0.0178,-0.0294 0,-0.006 0.0505,-0.0532 0.0862,-0.081 0.0789,-0.0614 0.21082,-0.1003 0.31204,-0.0921 z m 4.28293,1.73756 -0.002,0.66299 c -0.002,0.72824 1.4e-4,0.67537 -0.0353,0.85134 -0.023,0.11453 -0.0251,0.12255 -0.0495,0.19084 -0.0838,0.23433 -0.19525,0.40841 -0.35384,0.5527 -0.10373,0.0944 -0.17789,0.14183 -0.33563,0.21472 -0.0653,0.0302 -0.0791,0.035 -0.16985,0.0598 -0.11466,0.0313 -0.16603,0.0417 -0.28992,0.0584 -0.0575,0.008 -0.17995,0.009 -1.46796,0.0114 -1.29419,0.003 -1.41022,0.004 -1.46796,0.0115 -0.0345,0.005 -0.0807,0.0109 -0.1028,0.0137 -0.0745,0.01 -0.15672,0.0322 -0.33883,0.0931 -0.0478,0.016 -0.14941,0.064 -0.18791,0.0888 -0.0129,0.008 -0.0341,0.0199 -0.047,0.0256 -0.0129,0.006 -0.0512,0.0316 -0.085,0.0575 -0.0339,0.0259 -0.0625,0.0471 -0.0636,0.0471 -10e-4,0 -0.0279,0.0251 -0.0594,0.0558 -0.0678,0.0659 -0.15277,0.17151 -0.17433,0.21682 -0.008,0.0177 -0.0185,0.0356 -0.0224,0.0397 -0.01,0.0105 -0.0677,0.13573 -0.0777,0.16858 -0.0262,0.0857 -0.0489,0.18478 -0.0604,0.26269 -0.0145,0.0985 -0.016,0.22218 -0.0161,1.36174 -8e-5,1.06371 7.6e-4,1.18341 0.008,1.22588 0.01,0.0542 0.026,0.11415 0.0464,0.17094 0.0162,0.045 0.072,0.15543 0.0869,0.17169 0.005,0.006 0.0202,0.0277 0.0329,0.0484 0.0127,0.0207 0.0309,0.0454 0.0405,0.055 0.01,0.01 0.0346,0.0368 0.0556,0.0605 0.021,0.0237 0.0402,0.0437 0.0427,0.0446 0.002,8.6e-4 0.0284,0.0227 0.0577,0.0486 0.0292,0.0259 0.0594,0.0502 0.067,0.054 0.008,0.004 0.028,0.0173 0.0453,0.03 0.0392,0.029 0.0862,0.0591 0.12014,0.077 0.10052,0.0531 0.18273,0.0932 0.21165,0.10335 0.0186,0.007 0.0656,0.0241 0.10437,0.0391 0.0824,0.0317 0.18482,0.0651 0.22203,0.0723 0.0144,0.003 0.052,0.012 0.0836,0.0206 0.12219,0.033 0.31884,0.0722 0.39891,0.0795 0.0277,0.003 0.0751,0.008 0.10522,0.0121 0.16283,0.0225 0.39817,0.0408 0.60345,0.0469 h 8e-5 c 0.19296,0.006 0.28508,0.006 0.46481,4.1e-4 0.25301,-0.008 0.49258,-0.0253 0.67142,-0.0495 0.0402,-0.005 0.0815,-0.01 0.0918,-0.01 0.0567,0 0.40368,-0.0715 0.47911,-0.0988 0.008,-0.003 0.0204,-0.005 0.0273,-0.005 0.0174,0 0.12553,-0.0352 0.21655,-0.0706 0.0417,-0.0162 0.0816,-0.0312 0.0888,-0.0334 0.0194,-0.006 0.0971,-0.0424 0.13586,-0.0637 0.0187,-0.0103 0.0474,-0.0257 0.0638,-0.0343 0.0452,-0.0237 0.10779,-0.0646 0.13963,-0.0913 0.0157,-0.0132 0.0312,-0.0239 0.0346,-0.0239 0.009,0 0.14248,-0.12945 0.15947,-0.15462 0.008,-0.0118 0.023,-0.0322 0.0335,-0.0453 0.0234,-0.0294 0.0801,-0.12516 0.0842,-0.14214 0.002,-0.007 0.01,-0.0329 0.0181,-0.0582 0.0328,-0.0996 0.0318,-0.0717 0.0277,-0.74111 l -0.004,-0.60849 h -1.27124 -1.27131 v -0.17094 -0.17087 l 1.90547,-10e-4 1.90547,-0.001 0.0627,-0.0135 c 0.0345,-0.007 0.0792,-0.0177 0.0994,-0.0227 0.0488,-0.0123 0.17486,-0.0549 0.18783,-0.0635 0.006,-0.004 0.0142,-0.007 0.0189,-0.007 0.0174,0 0.16856,-0.0759 0.19309,-0.0969 0.005,-0.004 0.0107,-0.007 0.0137,-0.007 0.008,0 0.0846,-0.0527 0.10544,-0.0722 0.01,-0.009 0.0272,-0.0227 0.0392,-0.0304 0.0291,-0.0187 0.15575,-0.13935 0.18591,-0.17708 0.0133,-0.0166 0.03,-0.0357 0.0372,-0.0426 0.0172,-0.0163 0.0624,-0.0767 0.0624,-0.0833 0,-0.003 0.004,-0.009 0.008,-0.013 0.012,-0.0114 0.10166,-0.14777 0.10166,-0.15469 0,-0.003 0.0183,-0.0401 0.0407,-0.082 0.0413,-0.0772 0.0612,-0.12068 0.0759,-0.16528 0.004,-0.0136 0.0177,-0.0493 0.0294,-0.0793 0.025,-0.0643 0.0645,-0.18681 0.0727,-0.22552 0.003,-0.015 0.0151,-0.0697 0.0265,-0.12149 0.0645,-0.29475 0.0842,-0.48628 0.0878,-0.85202 0.003,-0.31596 -0.007,-0.51716 -0.0377,-0.73666 -0.0373,-0.26804 -0.0897,-0.49425 -0.15968,-0.68903 -0.0142,-0.0395 -0.0296,-0.083 -0.0343,-0.0967 -0.005,-0.0136 -0.0164,-0.0411 -0.0261,-0.0611 -0.01,-0.02 -0.0176,-0.0375 -0.0176,-0.0389 0,-10e-4 -0.0126,-0.0275 -0.0281,-0.0579 -0.0154,-0.0304 -0.0331,-0.066 -0.0392,-0.0791 -0.006,-0.0131 -0.0136,-0.0265 -0.0166,-0.0298 -0.005,-0.006 -0.0606,-0.0923 -0.0824,-0.12892 -0.0146,-0.0246 -0.046,-0.0663 -0.0609,-0.0811 -0.006,-0.006 -0.0202,-0.0234 -0.0316,-0.0388 -0.0222,-0.0302 -0.15179,-0.16281 -0.17105,-0.17513 -0.006,-0.004 -0.0281,-0.0211 -0.0482,-0.0378 -0.0483,-0.04 -0.0786,-0.0621 -0.0852,-0.0621 -0.003,0 -0.0163,-0.008 -0.0296,-0.0175 -0.0271,-0.0196 -0.14971,-0.0866 -0.15854,-0.0866 -0.003,0 -0.0299,-0.01 -0.0594,-0.0216 -0.1026,-0.0413 -0.21138,-0.0679 -0.31637,-0.0774 -0.0331,-0.003 -0.24387,-0.005 -0.5143,-0.005 z m -1.42885,5.77683 c 0.0432,4.3e-4 0.0863,0.004 0.11247,0.0115 0.0516,0.0142 0.12534,0.0498 0.16146,0.0781 0.0158,0.0124 0.0302,0.0225 0.0321,0.0225 0.009,0 0.07,0.0765 0.0904,0.11393 0.0461,0.0847 0.0629,0.16105 0.0546,0.24792 -0.005,0.0545 -0.0197,0.0991 -0.0532,0.16359 -0.0246,0.0475 -0.0318,0.0565 -0.0819,0.10267 -0.0785,0.0723 -0.12412,0.095 -0.23688,0.11806 -0.0325,0.007 -0.10856,0.009 -0.14724,0.004 -0.0356,-0.004 -0.1172,-0.0288 -0.14973,-0.0447 -0.0543,-0.0267 -0.16629,-0.12285 -0.16629,-0.14288 0,-0.003 -0.007,-0.0163 -0.0165,-0.0298 -0.04,-0.0595 -0.0595,-0.13098 -0.0587,-0.21533 8.6e-4,-0.0874 0.0224,-0.15463 0.0767,-0.23975 0.0153,-0.024 0.0756,-0.0874 0.083,-0.0874 0.003,0 0.0144,-0.008 0.0252,-0.0169 0.0249,-0.0214 0.11714,-0.0646 0.16181,-0.076 0.0263,-0.007 0.0694,-0.01 0.11261,-0.009 z" /></g><text
         xml:space="preserve"
         style="font-style:normal;font-variant:normal;font-weight:normal;font-stretch:normal;font-size:9.90527px;font-family:'DejaVu Sans';-inkscape-font-specification:'DejaVu Sans, Normal';font-variant-ligatures:normal;font-variant-caps:normal;font-variant-numeric:normal;font-variant-east-asian:normal;text-align:start;writing-mode:lr-tb;direction:ltr;text-anchor:start;fill:#ebebeb;fill-opacity:1;stroke-width:2.31308;stroke-linecap:round"
         x="96.64315"
         y="130.67041"
         id="text135"
         transform="scale(1.0315702,0.96939598)"><tspan
           id="tspan135"
           x="96.64315"
           y="130.67041"
           style="font-style:normal;font-variant:normal;font-weight:normal;font-stretch:normal;font-size:9.90527px;font-family:'DejaVu Sans';-inkscape-font-specification:'DejaVu Sans, Normal';font-variant-ligatures:normal;font-variant-caps:normal;font-variant-numeric:normal;font-variant-east-asian:normal;fill:#ebebeb;fill-opacity:1;stroke-width:2.31308">Python</tspan></text></g></g></svg>
