<?xml version="1.0" encoding="UTF-8" standalone="no"?>
<!-- Created with Inkscape (http://www.inkscape.org/) -->

<svg
   width="22.602592mm"
   height="5.589941mm"
   viewBox="0 0 85.427126 21.127337"
   version="1.1"
   id="svg1"
   xml:space="preserve"
   xmlns:xlink="http://www.w3.org/1999/xlink"
   xmlns="http://www.w3.org/2000/svg"
   xmlns:svg="http://www.w3.org/2000/svg"><defs
     id="defs1"><linearGradient
       id="linearGradient145"><stop
         style="stop-color:#265d9a;stop-opacity:1;"
         offset="0"
         id="stop145" /><stop
         style="stop-color:#3178c6;stop-opacity:1;"
         offset="1"
         id="stop146" /></linearGradient><linearGradient
       xlink:href="#linearGradient145"
       id="linearGradient146"
       x1="335.52893"
       y1="133.81052"
       x2="335.52893"
       y2="112.68317"
       gradientUnits="userSpaceOnUse" /></defs><g
     id="layer1"
     transform="translate(-293.74677,-112.68317)"><g
       id="typescript"><rect
         style="fill:url(#linearGradient146);stroke-width:4.61654;stroke-linecap:round"
         id="rect142"
         width="85.427124"
         height="21.127338"
         x="293.74677"
         y="112.68317"
         rx="3.731113"
         ry="3.731113" /><path
         d="m 298.47892,117.53842 c -0.60408,0 -1.09085,0.46014 -1.09085,1.03332 v 9.5968 c 0,0.5732 0.48677,1.03333 1.09085,1.03333 h 10.18595 c 0.60409,0 1.09085,-0.46013 1.09085,-1.03333 v -9.5968 c 0,-0.57318 -0.48676,-1.03332 -1.09085,-1.03332 z m 9.04907,5.38525 c 0.36595,0.007 0.73013,0.054 1.02183,0.1381 l 0.17949,0.0506 0.007,0.54772 c 0.003,0.30049 -0.003,0.54285 -0.0137,0.53853 -0.0106,-0.004 -0.11077,-0.0519 -0.22554,-0.10582 -0.39468,-0.18548 -0.97457,-0.27639 -1.36473,-0.21403 -0.63733,0.10194 -0.8374,0.55964 -0.39124,0.89755 0.14341,0.10864 0.32315,0.19916 0.75946,0.37972 0.76672,0.31731 1.14733,0.59389 1.3256,0.96198 0.10335,0.21338 0.13419,0.36606 0.13348,0.6559 -0.003,0.83797 -0.48212,1.33631 -1.45217,1.5051 -0.1979,0.0344 -0.92255,0.061 -1.12538,0.0415 -0.39636,-0.0381 -0.85171,-0.14191 -1.05864,-0.24164 l -0.092,-0.0437 v -0.55233 -0.55463 l 0.0553,0.0368 c 0.43311,0.29463 0.90453,0.44096 1.42225,0.43957 0.32954,-8.8e-4 0.50756,-0.0372 0.69502,-0.14039 0.29448,-0.16196 0.32222,-0.50828 0.0599,-0.74795 -0.17318,-0.15817 -0.3128,-0.23752 -0.69962,-0.40044 -0.48165,-0.20283 -0.61616,-0.26953 -0.84693,-0.41426 -0.3526,-0.22118 -0.60431,-0.54153 -0.6858,-0.87683 -0.0424,-0.17465 -0.0361,-0.56073 0.0118,-0.73644 0.14291,-0.52933 0.58569,-0.90612 1.24964,-1.06553 0.30209,-0.0726 0.66966,-0.10617 1.03563,-0.099 z m -7.18494,0.13119 h 2.20242 2.20243 l -0.007,0.47638 -0.007,0.47639 h -0.77327 -0.77558 l -0.007,2.12879 -0.007,2.12879 h -0.62828 -0.63059 l 0.004,-2.12419 c 0,-1.39853 -0.007,-2.12459 -0.0229,-2.12649 -0.0133,-0.003 -0.3666,-0.003 -0.78246,-0.004 l -0.75486,-0.003 -0.007,-0.47638 z"
         style="fill:#f7f7f7;fill-opacity:1;stroke-width:0.547945;stroke-linecap:round"
         id="path143" /><text
         xml:space="preserve"
         style="font-style:normal;font-variant:normal;font-weight:normal;font-stretch:normal;font-size:11.3604px;font-family:'DejaVu Sans';-inkscape-font-specification:'DejaVu Sans, Normal';font-variant-ligatures:normal;font-variant-caps:normal;font-variant-numeric:normal;font-variant-east-asian:normal;text-align:start;writing-mode:lr-tb;direction:ltr;text-anchor:start;fill:#f7f7f7;fill-opacity:1;stroke-width:2.65289;stroke-linecap:round"
         x="304.88861"
         y="131.18938"
         id="text142"
         transform="scale(1.0315702,0.96939599)"><tspan
           id="tspan142"
           x="304.88861"
           y="131.18938"
           style="font-style:normal;font-variant:normal;font-weight:normal;font-stretch:normal;font-size:11.3604px;font-family:'DejaVu Sans';-inkscape-font-specification:'DejaVu Sans, Normal';font-variant-ligatures:normal;font-variant-caps:normal;font-variant-numeric:normal;font-variant-east-asian:normal;fill:#f7f7f7;fill-opacity:1;stroke-width:2.65289">Typescript</tspan></text></g></g></svg>
